M48
; DRILL file {KiCad 9.0.1} date 2025-04-21T23:55:40-0400
; FORMAT={-:-/ absolute / inch / decimal}
; #@! TF.CreationDate,2025-04-21T23:55:40-04:00
; #@! TF.GenerationSoftware,Kicad,Pcbnew,9.0.1
; #@! TF.FileFunction,Plated,1,4,PTH
FMAT,2
INCH
; #@! TA.AperFunction,Plated,PTH,ViaDrill
T1C0.0118
; #@! TA.AperFunction,Plated,PTH,ViaDrill
T2C0.0157
; #@! TA.AperFunction,Plated,PTH,ViaDrill
T3C0.0315
; #@! TA.AperFunction,Plated,PTH,ComponentDrill
T4C0.0394
; #@! TA.AperFunction,Plated,PTH,ComponentDrill
T5C0.0787
%
G90
G05
T1
X0.5089Y2.6181
X0.5089Y2.5866
X0.5089Y2.5551
X0.5404Y2.6181
X0.5404Y2.5866
X0.5404Y2.5551
X0.5719Y2.6181
X0.5719Y2.5866
X0.5719Y2.5551
X0.59Y2.2874
X0.6023Y2.458
X0.632Y2.898
X0.7998Y2.6398
X0.7998Y2.6024
X0.7998Y2.565
X0.7998Y2.5276
X0.8368Y2.6394
X0.8368Y2.5272
X0.9644Y2.6394
X0.9644Y2.602
X0.9644Y2.5646
X0.9644Y2.5272
X1.138Y2.5535
X1.138Y2.4984
X1.138Y2.4433
X1.1486Y2.811
X1.149Y2.7677
X1.1498Y2.8535
X1.1553Y3.3051
X1.1553Y3.25
X1.1553Y3.1949
X1.1553Y3.1398
X1.1589Y2.1571
X1.1589Y2.102
X1.1589Y2.0469
X1.1589Y1.9366
X1.2104Y3.3051
X1.214Y1.9366
X1.3002Y3.2354
X1.3002Y3.202
X1.3002Y3.1685
X1.3002Y3.135
X1.3002Y3.1016
X1.3033Y2.1425
X1.3033Y2.1091
X1.3033Y2.0756
X1.3033Y2.0421
X1.3033Y2.0087
X1.3065Y2.865
X1.3065Y2.8315
X1.3065Y2.798
X1.3065Y2.7646
X1.3065Y2.7311
X1.3069Y2.5398
X1.3069Y2.5063
X1.3069Y2.4728
X1.3069Y2.4394
X1.3069Y2.4059
X1.3337Y3.2354
X1.3337Y3.202
X1.3337Y3.1685
X1.3337Y3.135
X1.3337Y3.1016
X1.3368Y2.1425
X1.3368Y2.1091
X1.3368Y2.0756
X1.3368Y2.0421
X1.3368Y2.0087
X1.34Y2.865
X1.34Y2.8315
X1.34Y2.798
X1.34Y2.7646
X1.34Y2.7311
X1.3404Y2.5398
X1.3404Y2.5063
X1.3404Y2.4728
X1.3404Y2.4394
X1.3404Y2.4059
X1.3671Y3.2354
X1.3671Y3.202
X1.3671Y3.1685
X1.3671Y3.135
X1.3671Y3.1016
X1.3703Y2.1425
X1.3703Y2.1091
X1.3703Y2.0756
X1.3703Y2.0421
X1.3703Y2.0087
X1.3734Y2.865
X1.3734Y2.8315
X1.3734Y2.798
X1.3734Y2.7646
X1.3734Y2.7311
X1.3738Y2.5398
X1.3738Y2.5063
X1.3738Y2.4728
X1.3738Y2.4394
X1.3738Y2.4059
X1.4006Y3.2354
X1.4006Y3.202
X1.4006Y3.1685
X1.4006Y3.135
X1.4006Y3.1016
X1.4037Y2.1425
X1.4037Y2.1091
X1.4037Y2.0756
X1.4037Y2.0421
X1.4037Y2.0087
X1.4069Y2.865
X1.4069Y2.8315
X1.4069Y2.798
X1.4069Y2.7646
X1.4069Y2.7311
X1.4073Y2.5398
X1.4073Y2.5063
X1.4073Y2.4728
X1.4073Y2.4394
X1.4073Y2.4059
X1.4341Y3.2354
X1.4341Y3.202
X1.4341Y3.1685
X1.4341Y3.135
X1.4341Y3.1016
X1.4372Y2.1425
X1.4372Y2.1091
X1.4372Y2.0756
X1.4372Y2.0421
X1.4372Y2.0087
X1.4404Y2.865
X1.4404Y2.8315
X1.4404Y2.798
X1.4404Y2.7646
X1.4404Y2.7311
X1.4407Y2.5398
X1.4407Y2.5063
X1.4407Y2.4728
X1.4407Y2.4394
X1.4407Y2.4059
X1.5652Y3.1283
X1.5659Y2.5358
X1.5755Y3.5945
X1.5755Y3.5512
X1.5755Y3.5079
X1.5755Y3.4646
X1.5755Y3.4213
X1.5758Y3.1721
X1.5766Y2.5796
X1.5778Y3.0851
X1.5786Y2.4926
X1.607Y3.2047
X1.6077Y2.6122
X1.6104Y3.054
X1.6112Y2.4615
X1.6167Y1.8354
X1.6167Y1.7921
X1.6167Y1.7488
X1.6167Y1.7055
X1.6167Y1.6622
X1.6188Y3.5945
X1.6188Y3.4213
X1.6502Y3.2173
X1.651Y2.6248
X1.6541Y3.0433
X1.6549Y2.4508
X1.66Y1.8354
X1.66Y1.6622
X1.6621Y3.5945
X1.6621Y3.4213
X1.694Y3.2067
X1.6948Y2.6141
X1.6974Y3.0559
X1.6982Y2.4634
X1.7033Y1.8354
X1.7033Y1.6622
X1.7054Y3.5945
X1.7054Y3.4213
X1.7265Y3.1755
X1.7273Y2.583
X1.7285Y3.0885
X1.7293Y2.496
X1.7392Y3.1323
X1.74Y2.5398
X1.7467Y1.8354
X1.7467Y1.6622
X1.7487Y3.5945
X1.7487Y3.4213
X1.79Y1.8354
X1.79Y1.6622
X1.792Y3.5945
X1.792Y3.5512
X1.792Y3.5079
X1.792Y3.4646
X1.792Y3.4213
X1.8333Y1.8354
X1.8333Y1.7921
X1.8333Y1.7488
X1.8333Y1.7055
X1.8333Y1.6622
X1.9009Y3.5543
X1.9009Y3.511
X1.9009Y3.4677
X1.9009Y3.4244
X1.9398Y1.8295
X1.9398Y1.7862
X1.9398Y1.7429
X1.9398Y1.6996
X1.9398Y1.6563
X1.9442Y3.4244
X1.9831Y1.8295
X1.9831Y1.6563
X1.9875Y3.5976
X1.9875Y3.4244
X2.0264Y1.8295
X2.0264Y1.6563
X2.0308Y3.5976
X2.0308Y3.4244
X2.0585Y2.8339
X2.0596Y2.2433
X2.0691Y2.8776
X2.0697Y1.8295
X2.0697Y1.6563
X2.0703Y2.2871
X2.0711Y2.7906
X2.0723Y2.2001
X2.0741Y3.5976
X2.0741Y3.4244
X2.1003Y2.9102
X2.1014Y2.3196
X2.1037Y2.7595
X2.1049Y2.1689
X2.113Y1.8295
X2.113Y1.6563
X2.1174Y3.5976
X2.1174Y3.5543
X2.1174Y3.511
X2.1174Y3.4677
X2.1174Y3.4244
X2.1435Y2.9228
X2.1447Y2.3323
X2.1474Y2.7488
X2.1486Y2.1583
X2.1563Y1.8295
X2.1563Y1.7862
X2.1563Y1.7429
X2.1563Y1.6996
X2.1563Y1.6563
X2.1873Y2.9122
X2.1885Y2.3216
X2.1907Y2.7615
X2.1919Y2.1709
X2.2198Y2.881
X2.221Y2.2905
X2.2218Y2.794
X2.223Y2.2035
X2.2325Y2.8378
X2.2337Y2.2472
T2
X-0.0579Y0.452
X-0.0539Y0.5445
X-0.0539Y0.3258
X0.0297Y0.387
X0.1104Y0.7354
X0.1203Y0.6833
X0.135Y0.5406
X0.136Y0.6321
X0.137Y0.3949
X0.2148Y0.6626
X0.2203Y2.6031
X0.2325Y2.7571
X0.2413Y0.5455
X0.2413Y0.3929
X0.2634Y2.8937
X0.2734Y2.1323
X0.3187Y2.4752
X0.3604Y0.7207
X0.3604Y0.6065
X0.3604Y0.4096
X0.3604Y0.3201
X0.3624Y0.5043
X0.3636Y1.9862
X0.372Y2.9654
X0.388Y2.1315
X0.4215Y2.6909
X0.4455Y2.4732
X0.4913Y2.9752
X0.503Y1.8303
X0.5317Y1.9819
X0.5754Y2.7791
X0.6081Y1.6996
X0.6195Y2.1335
X0.6695Y1.9362
X0.673Y2.6677
X0.6732Y2.5352
X0.7443Y2.0681
X0.7468Y2.4559
X0.7476Y2.7217
X0.7667Y1.7685
X0.8246Y1.4819
X0.8959Y1.4843
X1.0219Y2.0008
X1.0222Y3.0917
X1.0246Y2.478
X1.0246Y2.3992
X1.0278Y2.8012
X1.0278Y2.7224
X1.214Y3.0921
X1.2191Y2.0012
X1.2207Y2.7224
X1.2207Y2.3972
X1.7492Y0.0228
X1.885Y-0.0461
T3
X0.0386Y0.6902
X0.2256Y0.8358
X0.2325Y0.2295
X0.3447Y0.2305
X0.3476Y0.8339
T4
X-0.0598Y2.2197
X-0.0598Y2.1197
X-0.0598Y2.0197
X-0.0598Y1.9197
X-0.0598Y1.8197
X-0.0598Y1.7197
X-0.0598Y1.6197
X-0.0598Y1.5197
X-0.0598Y1.4197
X-0.0598Y1.3197
X0.5862Y1.4681
X0.5862Y1.3681
X0.5862Y1.1681
X0.5862Y1.0681
X0.5862Y0.9681
X0.5862Y0.8681
X0.5862Y0.7681
X0.5862Y0.6681
X0.5862Y0.5681
X0.5862Y0.4681
X0.5862Y0.3681
X0.5862Y0.2681
X0.5862Y0.1681
X0.5862Y0.0681
X1.1862Y1.4681
X1.1862Y1.3681
X1.1862Y1.2681
X1.1862Y1.1681
X1.1862Y1.0681
X1.1862Y0.9681
X1.1862Y0.8681
X1.1862Y0.7681
X1.1862Y0.6681
X1.1862Y0.5681
X1.1862Y0.4681
X1.1862Y0.3681
X1.1862Y0.2681
X1.1862Y0.1681
X1.1862Y0.0681
T5
X1.6545Y3.1311
X1.6545Y2.5406
X2.1467Y2.8358
X2.1467Y2.2453
M30
