%TF.GenerationSoftware,KiCad,Pcbnew,9.0.1*%
%TF.CreationDate,2025-04-21T23:55:35-04:00*%
%TF.ProjectId,BREAD_Slice,42524541-445f-4536-9c69-63652e6b6963,rev?*%
%TF.SameCoordinates,PX74eba40PY8552dc0*%
%TF.FileFunction,Soldermask,Top*%
%TF.FilePolarity,Negative*%
%FSLAX46Y46*%
G04 Gerber Fmt 4.6, Leading zero omitted, Abs format (unit mm)*
G04 Created by KiCad (PCBNEW 9.0.1) date 2025-04-21 23:55:35*
%MOMM*%
%LPD*%
G01*
G04 APERTURE LIST*
G04 Aperture macros list*
%AMRoundRect*
0 Rectangle with rounded corners*
0 $1 Rounding radius*
0 $2 $3 $4 $5 $6 $7 $8 $9 X,Y pos of 4 corners*
0 Add a 4 corners polygon primitive as box body*
4,1,4,$2,$3,$4,$5,$6,$7,$8,$9,$2,$3,0*
0 Add four circle primitives for the rounded corners*
1,1,$1+$1,$2,$3*
1,1,$1+$1,$4,$5*
1,1,$1+$1,$6,$7*
1,1,$1+$1,$8,$9*
0 Add four rect primitives between the rounded corners*
20,1,$1+$1,$2,$3,$4,$5,0*
20,1,$1+$1,$4,$5,$6,$7,0*
20,1,$1+$1,$6,$7,$8,$9,0*
20,1,$1+$1,$8,$9,$2,$3,0*%
%AMFreePoly0*
4,1,21,3.010355,2.385355,3.025000,2.350000,3.025000,-2.350000,3.010355,-2.385355,2.975000,-2.400000,1.425000,-2.400000,1.389645,-2.385355,1.375000,-2.350000,1.375000,-2.150000,-1.650000,-2.150000,-1.685355,-2.135355,-1.700000,-2.100000,-1.700000,2.100000,-1.685355,2.135355,-1.650000,2.150000,1.375000,2.150000,1.375000,2.350000,1.389645,2.385355,1.425000,2.400000,2.975000,2.400000,
3.010355,2.385355,3.010355,2.385355,$1*%
G04 Aperture macros list end*
%ADD10C,5.100000*%
%ADD11RoundRect,0.050000X-0.800000X-0.800000X0.800000X-0.800000X0.800000X0.800000X-0.800000X0.800000X0*%
%ADD12O,1.700000X1.700000*%
%ADD13RoundRect,0.050000X-0.850000X-0.850000X0.850000X-0.850000X0.850000X0.850000X-0.850000X0.850000X0*%
%ADD14O,1.800000X1.800000*%
%ADD15RoundRect,0.270833X-0.379167X-0.479167X0.379167X-0.479167X0.379167X0.479167X-0.379167X0.479167X0*%
%ADD16RoundRect,0.270833X0.479167X-0.379167X0.479167X0.379167X-0.479167X0.379167X-0.479167X-0.379167X0*%
%ADD17RoundRect,0.271277X0.503723X-0.366223X0.503723X0.366223X-0.503723X0.366223X-0.503723X-0.366223X0*%
%ADD18RoundRect,0.260000X1.790000X1.040000X-1.790000X1.040000X-1.790000X-1.040000X1.790000X-1.040000X0*%
%ADD19RoundRect,0.270833X-0.479167X0.379167X-0.479167X-0.379167X0.479167X-0.379167X0.479167X0.379167X0*%
%ADD20RoundRect,0.200000X-0.425000X0.200000X-0.425000X-0.200000X0.425000X-0.200000X0.425000X0.200000X0*%
%ADD21FreePoly0,0.000000*%
%ADD22RoundRect,0.271277X-0.366223X-0.503723X0.366223X-0.503723X0.366223X0.503723X-0.366223X0.503723X0*%
%ADD23RoundRect,0.275000X0.500000X-0.275000X0.500000X0.275000X-0.500000X0.275000X-0.500000X-0.275000X0*%
%ADD24RoundRect,0.101600X-0.825500X-0.500000X0.825500X-0.500000X0.825500X0.500000X-0.825500X0.500000X0*%
%ADD25RoundRect,0.271277X0.366223X0.503723X-0.366223X0.503723X-0.366223X-0.503723X0.366223X-0.503723X0*%
%ADD26RoundRect,1.008333X-5.041667X-5.041667X5.041667X-5.041667X5.041667X5.041667X-5.041667X5.041667X0*%
%ADD27C,2.800000*%
%ADD28RoundRect,0.050000X-0.152400X0.469900X-0.152400X-0.469900X0.152400X-0.469900X0.152400X0.469900X0*%
%ADD29RoundRect,0.050000X-0.469900X-0.152400X0.469900X-0.152400X0.469900X0.152400X-0.469900X0.152400X0*%
%ADD30RoundRect,0.050000X-1.346200X1.346200X-1.346200X-1.346200X1.346200X-1.346200X1.346200X1.346200X0*%
%ADD31C,0.700000*%
G04 APERTURE END LIST*
D10*
%TO.C,H1*%
X-120000Y89930000D03*
%TD*%
%TO.C,H3*%
X59880000Y89930000D03*
%TD*%
%TO.C,H2*%
X-120000Y-70000D03*
%TD*%
%TO.C,H4*%
X59880000Y-70000D03*
%TD*%
D11*
%TO.C,A1*%
X14890000Y37290000D03*
D12*
X14890000Y34750000D03*
X14890000Y29670000D03*
X14890000Y27130000D03*
X14890000Y24590000D03*
X14890000Y22050000D03*
X14890000Y19510000D03*
X14890000Y16970000D03*
X14890000Y14430000D03*
X14890000Y11890000D03*
X14890000Y9350000D03*
X14890000Y6810000D03*
X14890000Y4270000D03*
X14890000Y1730000D03*
X30130000Y1730000D03*
X30130000Y4270000D03*
X30130000Y6810000D03*
X30130000Y9350000D03*
X30130000Y11890000D03*
X30130000Y14430000D03*
X30130000Y16970000D03*
X30130000Y19510000D03*
X30130000Y22050000D03*
X30130000Y24590000D03*
X30130000Y27130000D03*
X30130000Y29670000D03*
X30130000Y32210000D03*
X30130000Y34750000D03*
X30130000Y37290000D03*
%TD*%
D13*
%TO.C,J1*%
X-1520000Y56380000D03*
D14*
X-1520000Y53840000D03*
X-1520000Y51300000D03*
X-1520000Y48760000D03*
X-1520000Y46220000D03*
X-1520000Y43680000D03*
X-1520000Y41140000D03*
X-1520000Y38600000D03*
X-1520000Y36060000D03*
X-1520000Y33520000D03*
%TD*%
D15*
%TO.C,R5*%
X11925000Y61250000D03*
X13925000Y61250000D03*
%TD*%
D16*
%TO.C,Rdead1*%
X13285000Y57090000D03*
X13285000Y59090000D03*
%TD*%
D17*
%TO.C,C13*%
X10165000Y70162500D03*
X10165000Y72237500D03*
%TD*%
D18*
%TO.C,C6*%
X52025000Y44340000D03*
X44025000Y44340000D03*
%TD*%
D19*
%TO.C,R2*%
X25965000Y80530000D03*
X25965000Y78530000D03*
%TD*%
D20*
%TO.C,Q2*%
X30835000Y82360000D03*
X30835000Y81090000D03*
X30835000Y79810000D03*
X30835000Y78540000D03*
D21*
X34105000Y80450000D03*
%TD*%
D19*
%TO.C,R4*%
X25955000Y52820000D03*
X25955000Y50820000D03*
%TD*%
D22*
%TO.C,C7*%
X18990000Y69130000D03*
X21065000Y69130000D03*
%TD*%
D23*
%TO.C,JP1*%
X11125000Y57200000D03*
X11125000Y59100000D03*
%TD*%
D24*
%TO.C,D1*%
X42803000Y597231D03*
X42803000Y-2602769D03*
X47957000Y-2602769D03*
X47957000Y597231D03*
%TD*%
D25*
%TO.C,C10*%
X16052500Y73610000D03*
X13977500Y73610000D03*
%TD*%
D19*
%TO.C,R3*%
X26025000Y62940000D03*
X26025000Y60940000D03*
%TD*%
D22*
%TO.C,C8*%
X18897500Y62380000D03*
X20972500Y62380000D03*
%TD*%
D20*
%TO.C,Q1*%
X31005000Y72970000D03*
X31005000Y71700000D03*
X31005000Y70420000D03*
X31005000Y69150000D03*
D21*
X34275000Y71060000D03*
%TD*%
D26*
%TO.C,HS1*%
X4080000Y13280000D03*
%TD*%
D27*
%TO.C,J2*%
X54525000Y57030000D03*
X42025000Y64530000D03*
X54525000Y72030001D03*
X42025000Y79530001D03*
%TD*%
D25*
%TO.C,C11*%
X9040000Y57230000D03*
X6965000Y57230000D03*
%TD*%
%TO.C,C12*%
X9055000Y60030000D03*
X6980000Y60030000D03*
%TD*%
D20*
%TO.C,Q4*%
X30965000Y54650000D03*
X30965000Y53380000D03*
X30965000Y52100000D03*
X30965000Y50830000D03*
D21*
X34235000Y52740000D03*
%TD*%
D20*
%TO.C,Q3*%
X31005000Y64710000D03*
X31005000Y63440000D03*
X31005000Y62160000D03*
X31005000Y60890000D03*
D21*
X34275000Y62800000D03*
%TD*%
D22*
%TO.C,C9*%
X18937500Y65650000D03*
X21012500Y65650000D03*
%TD*%
D18*
%TO.C,C5*%
X50900000Y89000000D03*
X42900000Y89000000D03*
%TD*%
D28*
%TO.C,U2*%
X14975000Y67744700D03*
X14475001Y67744700D03*
X13975000Y67744700D03*
X13475000Y67744700D03*
X12974999Y67744700D03*
X12475000Y67744700D03*
D29*
X11680300Y66950000D03*
X11680300Y66450001D03*
X11680300Y65950000D03*
X11680300Y65450000D03*
X11680300Y64949999D03*
X11680300Y64450000D03*
D28*
X12475000Y63655300D03*
X12974999Y63655300D03*
X13475000Y63655300D03*
X13975000Y63655300D03*
X14475001Y63655300D03*
X14975000Y63655300D03*
D29*
X15769700Y64450000D03*
X15769700Y64949999D03*
X15769700Y65450000D03*
X15769700Y65950000D03*
X15769700Y66450001D03*
X15769700Y66950000D03*
D30*
X13725000Y65700000D03*
%TD*%
D19*
%TO.C,R1*%
X26045000Y71150000D03*
X26045000Y69150000D03*
%TD*%
D31*
X54575000Y54820000D03*
X41065000Y44420000D03*
X29345000Y81150000D03*
X43317500Y91300000D03*
X40017500Y90200000D03*
X46565000Y43320000D03*
X30745000Y83950000D03*
X45517500Y91300000D03*
X14525000Y64900000D03*
X56735000Y57080000D03*
X41117500Y86900000D03*
X43265000Y46620000D03*
X12925000Y64900000D03*
X44417500Y86900000D03*
X41065000Y43320000D03*
X29435000Y54790000D03*
X41117500Y91300000D03*
X14525000Y66500000D03*
X45517500Y89100000D03*
X45465000Y42220000D03*
X30835000Y49190000D03*
X29435000Y53390000D03*
X54475000Y59240000D03*
X45465000Y46620000D03*
X13725000Y65700000D03*
X40017500Y91300000D03*
X52315000Y56980000D03*
X42217500Y91300000D03*
X29435000Y51990000D03*
X56413916Y58178301D03*
X55586699Y58968916D03*
X40017500Y88000000D03*
X46565000Y44420000D03*
X53376699Y58918916D03*
X13725000Y64900000D03*
X12925000Y66500000D03*
X42165000Y46620000D03*
X29435000Y49190000D03*
X41065000Y42220000D03*
X45517500Y88000000D03*
X44417500Y91300000D03*
X12925000Y65700000D03*
X46565000Y45520000D03*
X40017500Y89100000D03*
X45517500Y86900000D03*
X29345000Y82550000D03*
X14525000Y65700000D03*
X44365000Y46620000D03*
X41065000Y45520000D03*
X41065000Y46620000D03*
X13725000Y66500000D03*
X44365000Y42220000D03*
X43317500Y86900000D03*
X45517500Y90200000D03*
X42165000Y42220000D03*
X43265000Y42220000D03*
X55673301Y55141084D03*
X46565000Y46620000D03*
X29345000Y79750000D03*
X53463301Y55091084D03*
X52586084Y58091699D03*
X46565000Y42220000D03*
X42217500Y86900000D03*
X56463916Y55968301D03*
X52636084Y55881699D03*
X29345000Y83950000D03*
X40017500Y86900000D03*
X33105000Y53570000D03*
X43046699Y66398916D03*
X34805000Y51020000D03*
X35655000Y54420000D03*
X36505000Y51020000D03*
X42035000Y62250000D03*
X44195000Y64510000D03*
X40096084Y63311699D03*
X34805000Y53570000D03*
X43923916Y63398301D03*
X33105000Y54420000D03*
X36505000Y54420000D03*
X28905000Y64860000D03*
X35655000Y51870000D03*
X43133301Y62571084D03*
X33955000Y54420000D03*
X35655000Y52720000D03*
X43873916Y65608301D03*
X40836699Y66348916D03*
X33955000Y53570000D03*
X33105000Y51870000D03*
X34805000Y51870000D03*
X33105000Y51020000D03*
X41935000Y66670000D03*
X35655000Y53570000D03*
X40923301Y62521084D03*
X36505000Y53570000D03*
X28905000Y62060000D03*
X33955000Y52720000D03*
X28905000Y63460000D03*
X33955000Y51870000D03*
X34805000Y54420000D03*
X33955000Y51020000D03*
X36505000Y51870000D03*
X34805000Y52720000D03*
X36505000Y52720000D03*
X40046084Y65521699D03*
X39775000Y64410000D03*
X33105000Y52720000D03*
X35655000Y51020000D03*
X53433301Y70091084D03*
X34885000Y71070000D03*
X51582500Y91380000D03*
X33185000Y70220000D03*
X33195000Y61960000D03*
X55556699Y73968916D03*
X34035000Y69370000D03*
X54770000Y45370000D03*
X53346699Y73918916D03*
X34895000Y63660000D03*
X52682500Y86980000D03*
X34045000Y61960000D03*
X53782500Y86980000D03*
X35735000Y72770000D03*
X49270000Y45370000D03*
X35735000Y71920000D03*
X34895000Y61960000D03*
X33185000Y69370000D03*
X33185000Y71070000D03*
X50370000Y46470000D03*
X54770000Y43170000D03*
X54545000Y69820000D03*
X34045000Y63660000D03*
X35745000Y64510000D03*
X33195000Y63660000D03*
X54445000Y74240000D03*
X36585000Y69370000D03*
X33185000Y72770000D03*
X33195000Y61110000D03*
X36595000Y64510000D03*
X51470000Y42070000D03*
X48282500Y86980000D03*
X48282500Y88080000D03*
X54770000Y42070000D03*
X34885000Y70220000D03*
X52285000Y71980000D03*
X33195000Y62810000D03*
X56383916Y73178301D03*
X35735000Y71070000D03*
X54770000Y44270000D03*
X49270000Y46470000D03*
X56705000Y72080000D03*
X52606084Y70881699D03*
X34885000Y72770000D03*
X53782500Y88080000D03*
X48282500Y89180000D03*
X35745000Y63660000D03*
X34045000Y62810000D03*
X53782500Y90280000D03*
X35745000Y61960000D03*
X34035000Y71070000D03*
X35745000Y62810000D03*
X36595000Y61960000D03*
X52682500Y91380000D03*
X49382500Y86980000D03*
X36585000Y71070000D03*
X49270000Y43170000D03*
X52570000Y46470000D03*
X51582500Y86980000D03*
X53670000Y46470000D03*
X50482500Y86980000D03*
X53782500Y89180000D03*
X35735000Y69370000D03*
X36595000Y62810000D03*
X33185000Y71920000D03*
X52556084Y73091699D03*
X50482500Y91380000D03*
X48282500Y90280000D03*
X53670000Y42070000D03*
X53782500Y91380000D03*
X35735000Y70220000D03*
X36585000Y72770000D03*
X36585000Y70220000D03*
X36585000Y71920000D03*
X34045000Y64510000D03*
X34885000Y69370000D03*
X34885000Y71920000D03*
X56433916Y70968301D03*
X34895000Y62810000D03*
X49270000Y44270000D03*
X34035000Y71920000D03*
X34895000Y64510000D03*
X36595000Y63660000D03*
X54770000Y46470000D03*
X36595000Y61110000D03*
X55643301Y70141084D03*
X51470000Y46470000D03*
X50370000Y42070000D03*
X34035000Y72770000D03*
X33195000Y64510000D03*
X34035000Y70220000D03*
X52570000Y42070000D03*
X49270000Y42070000D03*
X34045000Y61110000D03*
X34895000Y61110000D03*
X35745000Y61110000D03*
X33875000Y81330000D03*
X35575000Y82180000D03*
X40816699Y81398916D03*
X34725000Y81330000D03*
X36425000Y81330000D03*
X43113301Y77621084D03*
X29205000Y72480000D03*
X29185000Y70300000D03*
X33025000Y80480000D03*
X40903301Y77571084D03*
X29175000Y71400000D03*
X35575000Y78780000D03*
X33875000Y78780000D03*
X34725000Y78780000D03*
X39755000Y79460000D03*
X35575000Y80480000D03*
X33025000Y82180000D03*
X34725000Y79630000D03*
X43903916Y78448301D03*
X35575000Y81330000D03*
X35575000Y79630000D03*
X36425000Y82180000D03*
X36425000Y78780000D03*
X44175000Y79560000D03*
X36425000Y80480000D03*
X40026084Y80571699D03*
X41915000Y81720000D03*
X34725000Y82180000D03*
X42015000Y77300000D03*
X34725000Y80480000D03*
X33875000Y80480000D03*
X43853916Y80658301D03*
X33025000Y79630000D03*
X33025000Y81330000D03*
X43026699Y81448916D03*
X33875000Y79630000D03*
X36425000Y79630000D03*
X33875000Y82180000D03*
X33025000Y78780000D03*
X40076084Y78361699D03*
M02*
