%TF.GenerationSoftware,KiCad,Pcbnew,9.0.1*%
%TF.CreationDate,2025-04-21T23:55:35-04:00*%
%TF.ProjectId,BREAD_Slice,42524541-445f-4536-9c69-63652e6b6963,rev?*%
%TF.SameCoordinates,PX74eba40PY8552dc0*%
%TF.FileFunction,Copper,L1,Top*%
%TF.FilePolarity,Positive*%
%FSLAX46Y46*%
G04 Gerber Fmt 4.6, Leading zero omitted, Abs format (unit mm)*
G04 Created by KiCad (PCBNEW 9.0.1) date 2025-04-21 23:55:35*
%MOMM*%
%LPD*%
G01*
G04 APERTURE LIST*
G04 Aperture macros list*
%AMRoundRect*
0 Rectangle with rounded corners*
0 $1 Rounding radius*
0 $2 $3 $4 $5 $6 $7 $8 $9 X,Y pos of 4 corners*
0 Add a 4 corners polygon primitive as box body*
4,1,4,$2,$3,$4,$5,$6,$7,$8,$9,$2,$3,0*
0 Add four circle primitives for the rounded corners*
1,1,$1+$1,$2,$3*
1,1,$1+$1,$4,$5*
1,1,$1+$1,$6,$7*
1,1,$1+$1,$8,$9*
0 Add four rect primitives between the rounded corners*
20,1,$1+$1,$2,$3,$4,$5,0*
20,1,$1+$1,$4,$5,$6,$7,0*
20,1,$1+$1,$6,$7,$8,$9,0*
20,1,$1+$1,$8,$9,$2,$3,0*%
%AMFreePoly0*
4,1,9,2.975000,-2.350000,1.425000,-2.350000,1.425000,-2.100000,-1.650000,-2.100000,-1.650000,2.100000,1.425000,2.100000,1.425000,2.350000,2.975000,2.350000,2.975000,-2.350000,2.975000,-2.350000,$1*%
G04 Aperture macros list end*
%TA.AperFunction,ComponentPad*%
%ADD10R,1.600000X1.600000*%
%TD*%
%TA.AperFunction,ComponentPad*%
%ADD11O,1.600000X1.600000*%
%TD*%
%TA.AperFunction,ComponentPad*%
%ADD12R,1.700000X1.700000*%
%TD*%
%TA.AperFunction,ComponentPad*%
%ADD13O,1.700000X1.700000*%
%TD*%
%TA.AperFunction,SMDPad,CuDef*%
%ADD14RoundRect,0.250000X-0.350000X-0.450000X0.350000X-0.450000X0.350000X0.450000X-0.350000X0.450000X0*%
%TD*%
%TA.AperFunction,SMDPad,CuDef*%
%ADD15RoundRect,0.250000X0.450000X-0.350000X0.450000X0.350000X-0.450000X0.350000X-0.450000X-0.350000X0*%
%TD*%
%TA.AperFunction,SMDPad,CuDef*%
%ADD16RoundRect,0.250000X0.475000X-0.337500X0.475000X0.337500X-0.475000X0.337500X-0.475000X-0.337500X0*%
%TD*%
%TA.AperFunction,SMDPad,CuDef*%
%ADD17RoundRect,0.250000X1.750000X1.000000X-1.750000X1.000000X-1.750000X-1.000000X1.750000X-1.000000X0*%
%TD*%
%TA.AperFunction,SMDPad,CuDef*%
%ADD18RoundRect,0.250000X-0.450000X0.350000X-0.450000X-0.350000X0.450000X-0.350000X0.450000X0.350000X0*%
%TD*%
%TA.AperFunction,SMDPad,CuDef*%
%ADD19RoundRect,0.175000X-0.400000X0.175000X-0.400000X-0.175000X0.400000X-0.175000X0.400000X0.175000X0*%
%TD*%
%TA.AperFunction,SMDPad,CuDef*%
%ADD20FreePoly0,0.000000*%
%TD*%
%TA.AperFunction,SMDPad,CuDef*%
%ADD21RoundRect,0.250000X-0.337500X-0.475000X0.337500X-0.475000X0.337500X0.475000X-0.337500X0.475000X0*%
%TD*%
%TA.AperFunction,SMDPad,CuDef*%
%ADD22RoundRect,0.250000X0.475000X-0.250000X0.475000X0.250000X-0.475000X0.250000X-0.475000X-0.250000X0*%
%TD*%
%TA.AperFunction,SMDPad,CuDef*%
%ADD23R,1.651000X1.000000*%
%TD*%
%TA.AperFunction,SMDPad,CuDef*%
%ADD24RoundRect,0.250000X0.337500X0.475000X-0.337500X0.475000X-0.337500X-0.475000X0.337500X-0.475000X0*%
%TD*%
%TA.AperFunction,SMDPad,CuDef*%
%ADD25RoundRect,1.000000X-5.000000X-5.000000X5.000000X-5.000000X5.000000X5.000000X-5.000000X5.000000X0*%
%TD*%
%TA.AperFunction,ComponentPad*%
%ADD26C,2.700000*%
%TD*%
%TA.AperFunction,SMDPad,CuDef*%
%ADD27R,0.304800X0.939800*%
%TD*%
%TA.AperFunction,SMDPad,CuDef*%
%ADD28R,0.939800X0.304800*%
%TD*%
%TA.AperFunction,SMDPad,CuDef*%
%ADD29R,2.692400X2.692400*%
%TD*%
%TA.AperFunction,ViaPad*%
%ADD30C,0.600000*%
%TD*%
%TA.AperFunction,ViaPad*%
%ADD31C,0.800000*%
%TD*%
%TA.AperFunction,ViaPad*%
%ADD32C,1.600000*%
%TD*%
%TA.AperFunction,Conductor*%
%ADD33C,0.500000*%
%TD*%
%TA.AperFunction,Conductor*%
%ADD34C,0.250000*%
%TD*%
%TA.AperFunction,Conductor*%
%ADD35C,1.000000*%
%TD*%
%TA.AperFunction,Conductor*%
%ADD36C,3.000000*%
%TD*%
%TA.AperFunction,Conductor*%
%ADD37C,1.500000*%
%TD*%
G04 APERTURE END LIST*
D10*
%TO.P,A1,1,D1/TX*%
%TO.N,unconnected-(A1-D1{slash}TX-Pad1)*%
X14890000Y37290000D03*
D11*
%TO.P,A1,2,D0/RX*%
%TO.N,unconnected-(A1-D0{slash}RX-Pad2)*%
X14890000Y34750000D03*
%TO.P,A1,4,GND*%
%TO.N,GND*%
X14890000Y29670000D03*
%TO.P,A1,5,D2*%
%TO.N,/ESTOP*%
X14890000Y27130000D03*
%TO.P,A1,6,D3*%
%TO.N,/INT*%
X14890000Y24590000D03*
%TO.P,A1,7,D4*%
%TO.N,/SYNC*%
X14890000Y22050000D03*
%TO.P,A1,8,D5*%
%TO.N,/LED*%
X14890000Y19510000D03*
%TO.P,A1,9,D6*%
%TO.N,/BLO1*%
X14890000Y16970000D03*
%TO.P,A1,10,D7*%
%TO.N,unconnected-(A1-D7-Pad10)*%
X14890000Y14430000D03*
%TO.P,A1,11,D8*%
%TO.N,unconnected-(A1-D8-Pad11)*%
X14890000Y11890000D03*
%TO.P,A1,12,D9*%
%TO.N,/BHI1*%
X14890000Y9350000D03*
%TO.P,A1,13,D10*%
%TO.N,/ALO1*%
X14890000Y6810000D03*
%TO.P,A1,14,D11*%
%TO.N,/ALI1*%
X14890000Y4270000D03*
%TO.P,A1,15,D12*%
%TO.N,unconnected-(A1-D12-Pad15)*%
X14890000Y1730000D03*
%TO.P,A1,16,D13*%
%TO.N,unconnected-(A1-D13-Pad16)*%
X30130000Y1730000D03*
%TO.P,A1,17,3V3*%
%TO.N,unconnected-(A1-3V3-Pad17)*%
X30130000Y4270000D03*
%TO.P,A1,18,AREF*%
%TO.N,unconnected-(A1-AREF-Pad18)*%
X30130000Y6810000D03*
%TO.P,A1,19,A0*%
%TO.N,/FAULT1*%
X30130000Y9350000D03*
%TO.P,A1,20,A1*%
%TO.N,/RESET1*%
X30130000Y11890000D03*
%TO.P,A1,21,A2*%
%TO.N,unconnected-(A1-A2-Pad21)*%
X30130000Y14430000D03*
%TO.P,A1,22,A3*%
%TO.N,unconnected-(A1-A3-Pad22)*%
X30130000Y16970000D03*
%TO.P,A1,23,A4*%
%TO.N,/I2C_DAT*%
X30130000Y19510000D03*
%TO.P,A1,24,A5*%
%TO.N,/I2C_CLK*%
X30130000Y22050000D03*
%TO.P,A1,25,A6*%
%TO.N,unconnected-(A1-A6-Pad25)*%
X30130000Y24590000D03*
%TO.P,A1,26,A7*%
%TO.N,unconnected-(A1-A7-Pad26)*%
X30130000Y27130000D03*
%TO.P,A1,27,+5V*%
%TO.N,+5V*%
X30130000Y29670000D03*
%TO.P,A1,28,~{RESET}*%
%TO.N,unconnected-(A1-~{RESET}-Pad28)*%
X30130000Y32210000D03*
%TO.P,A1,29,GND*%
%TO.N,GND*%
X30130000Y34750000D03*
%TO.P,A1,30,VIN*%
%TO.N,unconnected-(A1-VIN-Pad30)*%
X30130000Y37290000D03*
%TD*%
D12*
%TO.P,J1,1,Pin_1*%
%TO.N,GNDPWR*%
X-1520000Y56380000D03*
D13*
%TO.P,J1,2,Pin_2*%
%TO.N,+12V*%
X-1520000Y53840000D03*
%TO.P,J1,3,Pin_3*%
%TO.N,/I2C_CLK*%
X-1520000Y51300000D03*
%TO.P,J1,4,Pin_4*%
%TO.N,/I2C_DAT*%
X-1520000Y48760000D03*
%TO.P,J1,5,Pin_5*%
%TO.N,GNDPWR*%
X-1520000Y46220000D03*
%TO.P,J1,6,Pin_6*%
%TO.N,/ESTOP*%
X-1520000Y43680000D03*
%TO.P,J1,7,Pin_7*%
%TO.N,/INT*%
X-1520000Y41140000D03*
%TO.P,J1,8,Pin_8*%
%TO.N,/SYNC*%
X-1520000Y38600000D03*
%TO.P,J1,9,Pin_9*%
%TO.N,+12V*%
X-1520000Y36060000D03*
%TO.P,J1,10,Pin_10*%
%TO.N,GNDPWR*%
X-1520000Y33520000D03*
%TD*%
D14*
%TO.P,R5,1*%
%TO.N,+5V*%
X11925000Y61250000D03*
%TO.P,R5,2*%
%TO.N,/FAULT1*%
X13925000Y61250000D03*
%TD*%
D15*
%TO.P,Rdead1,1*%
%TO.N,GND*%
X13285000Y57090000D03*
%TO.P,Rdead1,2*%
%TO.N,/A4947 H-Bridge/RDEAD*%
X13285000Y59090000D03*
%TD*%
D16*
%TO.P,C13,1*%
%TO.N,Net-(U2-CP1)*%
X10165000Y70162500D03*
%TO.P,C13,2*%
%TO.N,Net-(U2-CP2)*%
X10165000Y72237500D03*
%TD*%
D17*
%TO.P,C6,1*%
%TO.N,/VBB1*%
X52025000Y44340000D03*
%TO.P,C6,2*%
%TO.N,GND*%
X44025000Y44340000D03*
%TD*%
D18*
%TO.P,R2,1*%
%TO.N,/A4947 H-Bridge/GLA*%
X25965000Y80530000D03*
%TO.P,R2,2*%
%TO.N,Net-(Q2-G)*%
X25965000Y78530000D03*
%TD*%
D19*
%TO.P,Q2,1,S*%
%TO.N,GND*%
X30835000Y82360000D03*
%TO.P,Q2,2,S*%
X30835000Y81090000D03*
%TO.P,Q2,3,S*%
X30835000Y79810000D03*
%TO.P,Q2,4,G*%
%TO.N,Net-(Q2-G)*%
X30835000Y78540000D03*
D20*
%TO.P,Q2,5,D*%
%TO.N,/A4947 H-Bridge/SA*%
X34105000Y80450000D03*
%TD*%
D18*
%TO.P,R4,1*%
%TO.N,/A4947 H-Bridge/GLB*%
X25955000Y52820000D03*
%TO.P,R4,2*%
%TO.N,Net-(Q4-G)*%
X25955000Y50820000D03*
%TD*%
D21*
%TO.P,C7,1*%
%TO.N,/A4947 H-Bridge/SA*%
X18990000Y69130000D03*
%TO.P,C7,2*%
%TO.N,/A4947 H-Bridge/CA*%
X21065000Y69130000D03*
%TD*%
D22*
%TO.P,JP1,1,A*%
%TO.N,+5V*%
X11125000Y57200000D03*
%TO.P,JP1,2,B*%
%TO.N,/A4947 H-Bridge/RDEAD*%
X11125000Y59100000D03*
%TD*%
D23*
%TO.P,D1,1,VDD*%
%TO.N,+5V*%
X42803000Y597231D03*
%TO.P,D1,2,DOUT*%
%TO.N,unconnected-(D1-DOUT-Pad2)*%
X42803000Y-2602769D03*
%TO.P,D1,3,VSS*%
%TO.N,GND*%
X47957000Y-2602769D03*
%TO.P,D1,4,DIN*%
%TO.N,/LED*%
X47957000Y597231D03*
%TD*%
D24*
%TO.P,C10,1*%
%TO.N,/VBB1*%
X16052500Y73610000D03*
%TO.P,C10,2*%
%TO.N,GND*%
X13977500Y73610000D03*
%TD*%
D18*
%TO.P,R3,1*%
%TO.N,/A4947 H-Bridge/GHB*%
X26025000Y62940000D03*
%TO.P,R3,2*%
%TO.N,Net-(Q3-G)*%
X26025000Y60940000D03*
%TD*%
D21*
%TO.P,C8,1*%
%TO.N,/A4947 H-Bridge/SB*%
X18897500Y62380000D03*
%TO.P,C8,2*%
%TO.N,/A4947 H-Bridge/CB*%
X20972500Y62380000D03*
%TD*%
D19*
%TO.P,Q1,1,S*%
%TO.N,/A4947 H-Bridge/SA*%
X31005000Y72970000D03*
%TO.P,Q1,2,S*%
X31005000Y71700000D03*
%TO.P,Q1,3,S*%
X31005000Y70420000D03*
%TO.P,Q1,4,G*%
%TO.N,Net-(Q1-G)*%
X31005000Y69150000D03*
D20*
%TO.P,Q1,5,D*%
%TO.N,/VBB1*%
X34275000Y71060000D03*
%TD*%
D25*
%TO.P,HS1,1*%
%TO.N,GND*%
X4080000Y13280000D03*
%TD*%
D26*
%TO.P,J2,1,1*%
%TO.N,GND*%
X54525000Y57030000D03*
%TO.P,J2,2,2*%
%TO.N,/A4947 H-Bridge/SB*%
X42025000Y64530000D03*
%TO.P,J2,3,3*%
%TO.N,/VBB1*%
X54525000Y72030001D03*
%TO.P,J2,4,4*%
%TO.N,/A4947 H-Bridge/SA*%
X42025000Y79530001D03*
%TD*%
D24*
%TO.P,C11,1*%
%TO.N,+5V*%
X9040000Y57230000D03*
%TO.P,C11,2*%
%TO.N,GND*%
X6965000Y57230000D03*
%TD*%
%TO.P,C12,1*%
%TO.N,+5V*%
X9055000Y60030000D03*
%TO.P,C12,2*%
%TO.N,GND*%
X6980000Y60030000D03*
%TD*%
D19*
%TO.P,Q4,1,S*%
%TO.N,GND*%
X30965000Y54650000D03*
%TO.P,Q4,2,S*%
X30965000Y53380000D03*
%TO.P,Q4,3,S*%
X30965000Y52100000D03*
%TO.P,Q4,4,G*%
%TO.N,Net-(Q4-G)*%
X30965000Y50830000D03*
D20*
%TO.P,Q4,5,D*%
%TO.N,/A4947 H-Bridge/SB*%
X34235000Y52740000D03*
%TD*%
D19*
%TO.P,Q3,1,S*%
%TO.N,/A4947 H-Bridge/SB*%
X31005000Y64710000D03*
%TO.P,Q3,2,S*%
X31005000Y63440000D03*
%TO.P,Q3,3,S*%
X31005000Y62160000D03*
%TO.P,Q3,4,G*%
%TO.N,Net-(Q3-G)*%
X31005000Y60890000D03*
D20*
%TO.P,Q3,5,D*%
%TO.N,/VBB1*%
X34275000Y62800000D03*
%TD*%
D21*
%TO.P,C9,1*%
%TO.N,/A4947 H-Bridge/VREG*%
X18937500Y65650000D03*
%TO.P,C9,2*%
%TO.N,GND*%
X21012500Y65650000D03*
%TD*%
D17*
%TO.P,C5,1*%
%TO.N,/VBB1*%
X50900000Y89000000D03*
%TO.P,C5,2*%
%TO.N,GND*%
X42900000Y89000000D03*
%TD*%
D27*
%TO.P,U2,1,SA*%
%TO.N,/A4947 H-Bridge/SA*%
X14975000Y67744700D03*
%TO.P,U2,2,GLA*%
%TO.N,/A4947 H-Bridge/GLA*%
X14475001Y67744700D03*
%TO.P,U2,3,VBB*%
%TO.N,/VBB1*%
X13975000Y67744700D03*
%TO.P,U2,4,CP2*%
%TO.N,Net-(U2-CP2)*%
X13475000Y67744700D03*
%TO.P,U2,5,CP1*%
%TO.N,Net-(U2-CP1)*%
X12974999Y67744700D03*
%TO.P,U2,6,GND*%
%TO.N,GND*%
X12475000Y67744700D03*
D28*
%TO.P,U2,7,GND*%
X11680300Y66950000D03*
%TO.P,U2,8,BLO*%
%TO.N,/BLO1*%
X11680300Y66450001D03*
%TO.P,U2,9,BHI*%
%TO.N,/BHI1*%
X11680300Y65950000D03*
%TO.P,U2,10,ALO*%
%TO.N,/ALO1*%
X11680300Y65450000D03*
%TO.P,U2,11,ALI*%
%TO.N,/ALI1*%
X11680300Y64949999D03*
%TO.P,U2,12,VDD*%
%TO.N,+5V*%
X11680300Y64450000D03*
D27*
%TO.P,U2,13,AGND*%
%TO.N,GND*%
X12475000Y63655300D03*
%TO.P,U2,14,RDEAD*%
%TO.N,/A4947 H-Bridge/RDEAD*%
X12974999Y63655300D03*
%TO.P,U2,15,FAULT*%
%TO.N,/FAULT1*%
X13475000Y63655300D03*
%TO.P,U2,16,RESET*%
%TO.N,/RESET1*%
X13975000Y63655300D03*
%TO.P,U2,17,GND*%
%TO.N,GND*%
X14475001Y63655300D03*
%TO.P,U2,18,GLB*%
%TO.N,/A4947 H-Bridge/GLB*%
X14975000Y63655300D03*
D28*
%TO.P,U2,19,SB*%
%TO.N,/A4947 H-Bridge/SB*%
X15769700Y64450000D03*
%TO.P,U2,20,GHB*%
%TO.N,/A4947 H-Bridge/GHB*%
X15769700Y64949999D03*
%TO.P,U2,21,CB*%
%TO.N,/A4947 H-Bridge/CB*%
X15769700Y65450000D03*
%TO.P,U2,22,VREG*%
%TO.N,/A4947 H-Bridge/VREG*%
X15769700Y65950000D03*
%TO.P,U2,23,CA*%
%TO.N,/A4947 H-Bridge/CA*%
X15769700Y66450001D03*
%TO.P,U2,24,GHA*%
%TO.N,/A4947 H-Bridge/GHA*%
X15769700Y66950000D03*
D29*
%TO.P,U2,25,PAD*%
%TO.N,GND*%
X13725000Y65700000D03*
%TD*%
D18*
%TO.P,R1,1*%
%TO.N,/A4947 H-Bridge/GHA*%
X26045000Y71150000D03*
%TO.P,R1,2*%
%TO.N,Net-(Q1-G)*%
X26045000Y69150000D03*
%TD*%
D30*
%TO.N,GND*%
X54575000Y54820000D03*
X41065000Y44420000D03*
X29345000Y81150000D03*
X43317500Y91300000D03*
X40017500Y90200000D03*
X46565000Y43320000D03*
X30745000Y83950000D03*
D31*
X6130000Y13855000D03*
X18905000Y52530000D03*
D30*
X45517500Y91300000D03*
X14525000Y64900000D03*
X56735000Y57080000D03*
D31*
X9855000Y54140000D03*
X5595000Y66120000D03*
X6130000Y9980000D03*
X9155000Y18305000D03*
D30*
X24495000Y65140000D03*
D31*
X11315000Y62820000D03*
D30*
X41117500Y86900000D03*
X43265000Y46620000D03*
X12925000Y64900000D03*
D31*
X-1370000Y8275000D03*
D30*
X44417500Y86900000D03*
X14985000Y58100000D03*
X41065000Y43320000D03*
X29435000Y54790000D03*
X21255000Y67040000D03*
X20315000Y65150000D03*
D32*
X980000Y17530000D03*
D30*
X24495000Y64190000D03*
X41117500Y91300000D03*
D31*
X9235000Y50450000D03*
D30*
X14525000Y66500000D03*
X45517500Y89100000D03*
X15298037Y62433037D03*
D31*
X3055000Y17355000D03*
D30*
X45465000Y42220000D03*
X30835000Y49190000D03*
D31*
X9155000Y8130000D03*
D30*
X20315000Y67050000D03*
D31*
X13505000Y50340000D03*
D30*
X29435000Y53390000D03*
D31*
X10705000Y68350000D03*
D30*
X54475000Y59240000D03*
D31*
X3455000Y16055000D03*
D30*
X45465000Y46620000D03*
X20315000Y66100000D03*
X13725000Y65700000D03*
X40017500Y91300000D03*
X52315000Y56980000D03*
X42217500Y91300000D03*
D31*
X6690000Y73500000D03*
X5455000Y16830000D03*
D30*
X29435000Y51990000D03*
X56413916Y58178301D03*
D31*
X9205000Y12810000D03*
D30*
X55586699Y58968916D03*
D31*
X2805000Y18680000D03*
D30*
X40017500Y88000000D03*
X46565000Y44420000D03*
X53376699Y58918916D03*
X13725000Y64900000D03*
D31*
X12480000Y75570000D03*
X9450000Y75320000D03*
D30*
X12925000Y66500000D03*
D31*
X15735000Y54190000D03*
X15445000Y43170000D03*
X47880000Y-1170000D03*
X20945000Y37640000D03*
D30*
X42165000Y46620000D03*
X29435000Y49190000D03*
X41065000Y42220000D03*
X45517500Y88000000D03*
X44417500Y91300000D03*
X12925000Y65700000D03*
X46565000Y45520000D03*
X20315000Y64200000D03*
X40017500Y89100000D03*
X45517500Y86900000D03*
X21255000Y64190000D03*
X29345000Y82550000D03*
D31*
X19475000Y44920000D03*
D30*
X14525000Y65700000D03*
X44365000Y46620000D03*
D31*
X12775000Y46490000D03*
X17005000Y49180000D03*
X-1470000Y11480000D03*
D30*
X41065000Y45520000D03*
D31*
X9155000Y10405000D03*
D30*
X41065000Y46620000D03*
D31*
X-1370000Y13830000D03*
D30*
X13725000Y66500000D03*
D31*
X9155000Y15405000D03*
D30*
X44365000Y42220000D03*
X43317500Y86900000D03*
X45517500Y90200000D03*
D31*
X3430000Y13730000D03*
X5905000Y70030000D03*
D30*
X42165000Y42220000D03*
D31*
X3480000Y10030000D03*
D30*
X43265000Y42220000D03*
X55673301Y55141084D03*
X46565000Y46620000D03*
X29345000Y79750000D03*
D31*
X8095000Y62870000D03*
D30*
X53463301Y55091084D03*
X52586084Y58091699D03*
X46565000Y42220000D03*
X42217500Y86900000D03*
X56463916Y55968301D03*
X52636084Y55881699D03*
D31*
X755000Y9830000D03*
D30*
X29345000Y83950000D03*
X40017500Y86900000D03*
X24495000Y66090000D03*
D31*
X6945000Y54160000D03*
D30*
X24495000Y67040000D03*
D31*
%TO.N,+5V*%
X22755000Y37700000D03*
D32*
X8755000Y5855000D03*
X8830000Y21180000D03*
X5905000Y5830000D03*
X5730000Y21230000D03*
D31*
X44430000Y580000D03*
D30*
%TO.N,/A4947 H-Bridge/SB*%
X33105000Y53570000D03*
X43046699Y66398916D03*
X34805000Y51020000D03*
X35655000Y54420000D03*
X36505000Y51020000D03*
X42035000Y62250000D03*
X44195000Y64510000D03*
X40096084Y63311699D03*
X34805000Y53570000D03*
X43923916Y63398301D03*
X33105000Y54420000D03*
X36505000Y54420000D03*
X28905000Y64860000D03*
X35655000Y51870000D03*
X43133301Y62571084D03*
X33955000Y54420000D03*
X35655000Y52720000D03*
X43873916Y65608301D03*
X40836699Y66348916D03*
X33955000Y53570000D03*
X33105000Y51870000D03*
X34805000Y51870000D03*
X33105000Y51020000D03*
X41935000Y66670000D03*
X35655000Y53570000D03*
X40923301Y62521084D03*
D31*
X18967500Y62380000D03*
D30*
X36505000Y53570000D03*
X28905000Y62060000D03*
X33955000Y52720000D03*
X28905000Y63460000D03*
X33955000Y51870000D03*
X34805000Y54420000D03*
X33955000Y51020000D03*
X36505000Y51870000D03*
X34805000Y52720000D03*
X36505000Y52720000D03*
X40046084Y65521699D03*
X39775000Y64410000D03*
X33105000Y52720000D03*
X35655000Y51020000D03*
%TO.N,/VBB1*%
X53433301Y70091084D03*
X34885000Y71070000D03*
X51582500Y91380000D03*
X33185000Y70220000D03*
X16052500Y73610000D03*
X33195000Y61960000D03*
X55556699Y73968916D03*
X34035000Y69370000D03*
X54770000Y45370000D03*
X53346699Y73918916D03*
X34895000Y63660000D03*
X52682500Y86980000D03*
X34045000Y61960000D03*
X53782500Y86980000D03*
X35735000Y72770000D03*
X49270000Y45370000D03*
X35735000Y71920000D03*
X34895000Y61960000D03*
X33185000Y69370000D03*
X33185000Y71070000D03*
X50370000Y46470000D03*
X54770000Y43170000D03*
X54545000Y69820000D03*
X34045000Y63660000D03*
X35745000Y64510000D03*
X33195000Y63660000D03*
X54445000Y74240000D03*
X36585000Y69370000D03*
X33185000Y72770000D03*
X33195000Y61110000D03*
X36595000Y64510000D03*
X51470000Y42070000D03*
X48282500Y86980000D03*
X48282500Y88080000D03*
X54770000Y42070000D03*
X34885000Y70220000D03*
X52285000Y71980000D03*
X33195000Y62810000D03*
X56383916Y73178301D03*
X35735000Y71070000D03*
X54770000Y44270000D03*
D31*
X14615000Y70590000D03*
D30*
X49270000Y46470000D03*
X56705000Y72080000D03*
X52606084Y70881699D03*
X34885000Y72770000D03*
X53782500Y88080000D03*
X48282500Y89180000D03*
X35745000Y63660000D03*
X34045000Y62810000D03*
X53782500Y90280000D03*
X35745000Y61960000D03*
X34035000Y71070000D03*
X35745000Y62810000D03*
X36595000Y61960000D03*
X52682500Y91380000D03*
X49382500Y86980000D03*
X36585000Y71070000D03*
X49270000Y43170000D03*
X52570000Y46470000D03*
X51582500Y86980000D03*
X53670000Y46470000D03*
X50482500Y86980000D03*
X53782500Y89180000D03*
X35735000Y69370000D03*
X36595000Y62810000D03*
X33185000Y71920000D03*
X52556084Y73091699D03*
X50482500Y91380000D03*
X48282500Y90280000D03*
X53670000Y42070000D03*
X53782500Y91380000D03*
X35735000Y70220000D03*
X36585000Y72770000D03*
X36585000Y70220000D03*
X36585000Y71920000D03*
X34045000Y64510000D03*
X34885000Y69370000D03*
X34885000Y71920000D03*
X56433916Y70968301D03*
X34895000Y62810000D03*
X49270000Y44270000D03*
X34035000Y71920000D03*
X34895000Y64510000D03*
X36595000Y63660000D03*
X54770000Y46470000D03*
X36595000Y61110000D03*
X55643301Y70141084D03*
X51470000Y46470000D03*
X50370000Y42070000D03*
X34035000Y72770000D03*
X33195000Y64510000D03*
X34035000Y70220000D03*
X52570000Y42070000D03*
X49270000Y42070000D03*
X34045000Y61110000D03*
X34895000Y61110000D03*
X35745000Y61110000D03*
%TO.N,/A4947 H-Bridge/SA*%
X33875000Y81330000D03*
X35575000Y82180000D03*
X40816699Y81398916D03*
X34725000Y81330000D03*
X36425000Y81330000D03*
X43113301Y77621084D03*
X29205000Y72480000D03*
X29185000Y70300000D03*
X33025000Y80480000D03*
X40903301Y77571084D03*
X29175000Y71400000D03*
X35575000Y78780000D03*
X33875000Y78780000D03*
X34725000Y78780000D03*
X39755000Y79460000D03*
X35575000Y80480000D03*
X33025000Y82180000D03*
X34725000Y79630000D03*
X43903916Y78448301D03*
X35575000Y81330000D03*
X35575000Y79630000D03*
X36425000Y82180000D03*
X36425000Y78780000D03*
X44175000Y79560000D03*
X36425000Y80480000D03*
X40026084Y80571699D03*
X41915000Y81720000D03*
X34725000Y82180000D03*
X42015000Y77300000D03*
X34725000Y80480000D03*
X33875000Y80480000D03*
X43853916Y80658301D03*
X33025000Y79630000D03*
X33025000Y81330000D03*
X43026699Y81448916D03*
X33875000Y79630000D03*
X36425000Y79630000D03*
X33875000Y82180000D03*
X33025000Y78780000D03*
X40076084Y78361699D03*
D31*
X18990000Y69130000D03*
%TO.N,Net-(Q1-G)*%
X31005000Y69150000D03*
X26105000Y69150000D03*
%TO.N,Net-(Q2-G)*%
X30835000Y78540000D03*
X25965000Y78530000D03*
%TO.N,Net-(Q3-G)*%
X31005000Y60890000D03*
X26025000Y60940000D03*
%TO.N,Net-(Q4-G)*%
X30965000Y50830000D03*
X25955000Y50820000D03*
%TO.N,/A4947 H-Bridge/GHA*%
X17095000Y67760000D03*
X26105000Y71150000D03*
%TO.N,/A4947 H-Bridge/GHB*%
X26025000Y62940000D03*
X17100003Y64393997D03*
%TD*%
D33*
%TO.N,/LED*%
X-2495000Y19205000D02*
X-1920000Y19780000D01*
X14620000Y19780000D02*
X14890000Y19510000D01*
X49280000Y-725769D02*
X49280000Y-3620000D01*
X-1920000Y19780000D02*
X14620000Y19780000D01*
X3580000Y6330000D02*
X-1520000Y6330000D01*
X48580000Y-4320000D02*
X11632944Y-4320000D01*
X47957000Y597231D02*
X49280000Y-725769D01*
X-2495000Y7305000D02*
X-2495000Y19205000D01*
X14890000Y19510000D02*
X14970000Y19510000D01*
X6330000Y3580000D02*
X3580000Y6330000D01*
X11632944Y-4320000D02*
X6330000Y982944D01*
X6330000Y982944D02*
X6330000Y3580000D01*
X49280000Y-3620000D02*
X48580000Y-4320000D01*
X-1520000Y6330000D02*
X-2495000Y7305000D01*
D34*
%TO.N,GND*%
X12475000Y63655300D02*
X12150300Y63655300D01*
X15015000Y62470000D02*
X14475001Y63009999D01*
X15261074Y62470000D02*
X15015000Y62470000D01*
D35*
X15445000Y43140000D02*
X15445000Y43170000D01*
D34*
X14475001Y63009999D02*
X14475001Y63655300D01*
D36*
X46820000Y52925000D02*
X50925000Y57030000D01*
D34*
X11680300Y67374700D02*
X10705000Y68350000D01*
X12475000Y67744700D02*
X11310300Y67744700D01*
X12150300Y63655300D02*
X11315000Y62820000D01*
D36*
X44025000Y44340000D02*
X46820000Y47135000D01*
D34*
X11680300Y66950000D02*
X11680300Y67374700D01*
D36*
X46820000Y47135000D02*
X46820000Y52925000D01*
D35*
X20945000Y37640000D02*
X15445000Y43140000D01*
D33*
X47880000Y-1170000D02*
X47880000Y-2525769D01*
D34*
X15298037Y62433037D02*
X15261074Y62470000D01*
X11310300Y67744700D02*
X10705000Y68350000D01*
D36*
X50925000Y57030000D02*
X54525000Y57030000D01*
D34*
%TO.N,/BHI1*%
X4783000Y50512000D02*
X21323000Y33972000D01*
X14915000Y9350000D02*
X14890000Y9350000D01*
X11680300Y65950000D02*
X8552810Y65950000D01*
X21323000Y15758000D02*
X14915000Y9350000D01*
X8552810Y65950000D02*
X4783000Y62180190D01*
X4783000Y62180190D02*
X4783000Y50512000D01*
X21323000Y33972000D02*
X21323000Y15758000D01*
D33*
%TO.N,/SYNC*%
X14890000Y22770000D02*
X14890000Y22050000D01*
X-1520000Y38600000D02*
X-940000Y38600000D01*
X-940000Y38600000D02*
X14890000Y22770000D01*
D34*
%TO.N,/BLO1*%
X20872000Y22952000D02*
X20872000Y33785190D01*
X8415001Y66450001D02*
X11680300Y66450001D01*
X4332000Y62367000D02*
X8415001Y66450001D01*
X20872000Y33785190D02*
X4332000Y50325190D01*
X4332000Y50325190D02*
X4332000Y62367000D01*
X14890000Y16970000D02*
X20872000Y22952000D01*
%TO.N,/FAULT1*%
X13925000Y61250000D02*
X23955000Y51220000D01*
X13475000Y61700000D02*
X13475000Y63655300D01*
X23955000Y15525000D02*
X30130000Y9350000D01*
X23955000Y51220000D02*
X23955000Y15525000D01*
X13925000Y61250000D02*
X13475000Y61700000D01*
D33*
%TO.N,/INT*%
X-1520000Y41140000D02*
X14890000Y24730000D01*
X14890000Y24730000D02*
X14890000Y24590000D01*
D34*
%TO.N,/RESET1*%
X13975000Y63655300D02*
X13975000Y62872190D01*
X13975000Y62872190D02*
X24929000Y51918190D01*
X24929000Y51918190D02*
X24929000Y17091000D01*
X24929000Y17091000D02*
X30130000Y11890000D01*
D33*
%TO.N,/ESTOP*%
X14430000Y27130000D02*
X14890000Y27130000D01*
X-1520000Y43080000D02*
X14430000Y27130000D01*
X-1520000Y43680000D02*
X-1520000Y43080000D01*
D34*
%TO.N,/ALO1*%
X14890000Y6810000D02*
X21774000Y13694000D01*
X5234000Y61993380D02*
X8690620Y65450000D01*
X5234000Y50698810D02*
X5234000Y61993380D01*
X8690620Y65450000D02*
X11680300Y65450000D01*
X21774000Y34158810D02*
X5234000Y50698810D01*
X21774000Y13694000D02*
X21774000Y34158810D01*
%TO.N,+5V*%
X9055000Y60030000D02*
X9055000Y63760000D01*
D33*
X42803000Y597231D02*
X44412769Y597231D01*
X44412769Y597231D02*
X44430000Y580000D01*
D34*
X22755000Y37700000D02*
X22755000Y38610000D01*
X11125000Y57200000D02*
X9070000Y57200000D01*
X11125000Y61250000D02*
X11925000Y61250000D01*
X22755000Y38610000D02*
X11125000Y50240000D01*
X9055000Y57245000D02*
X9040000Y57230000D01*
D33*
X42812769Y597231D02*
X42803000Y597231D01*
D34*
X9070000Y57200000D02*
X9040000Y57230000D01*
X9745000Y64450000D02*
X11680300Y64450000D01*
X11125000Y50240000D02*
X11125000Y57200000D01*
D37*
X30110000Y29670000D02*
X30130000Y29670000D01*
D34*
X9055000Y63760000D02*
X9745000Y64450000D01*
X9055000Y60030000D02*
X9055000Y57245000D01*
X9905000Y60030000D02*
X11125000Y61250000D01*
X9055000Y60030000D02*
X9905000Y60030000D01*
%TO.N,/ALI1*%
X5685000Y61806570D02*
X5685000Y50885620D01*
X11680300Y64949999D02*
X8828429Y64949999D01*
X5685000Y50885620D02*
X22225000Y34345620D01*
X22225000Y34345620D02*
X22225000Y11605000D01*
X22225000Y11605000D02*
X14890000Y4270000D01*
X8828429Y64949999D02*
X5685000Y61806570D01*
%TO.N,/A4947 H-Bridge/CB*%
X15769700Y65450000D02*
X17461514Y65450000D01*
X20531514Y62380000D02*
X20972500Y62380000D01*
X17461514Y65450000D02*
X20531514Y62380000D01*
%TO.N,/A4947 H-Bridge/SB*%
X17839700Y62380000D02*
X15769700Y64450000D01*
X17839700Y62380000D02*
X18897500Y62380000D01*
D35*
X28905000Y60230000D02*
X28905000Y62060000D01*
X33105000Y54420000D02*
X33105000Y56030000D01*
X33105000Y56030000D02*
X28905000Y60230000D01*
D37*
%TO.N,/VBB1*%
X23424000Y93729000D02*
X46608500Y93729000D01*
X16615000Y73610000D02*
X22485000Y79480000D01*
X50900000Y89437500D02*
X50900000Y89000000D01*
X46608500Y93729000D02*
X50900000Y89437500D01*
X22485000Y79480000D02*
X22485000Y92790000D01*
X16052500Y73610000D02*
X16615000Y73610000D01*
D34*
X13975000Y69860549D02*
X13975000Y67744700D01*
X14615000Y70590000D02*
X14615000Y70500549D01*
D37*
X22485000Y92790000D02*
X23424000Y93729000D01*
D34*
X14615000Y70500549D02*
X13975000Y69860549D01*
%TO.N,/A4947 H-Bridge/CA*%
X20665000Y69130000D02*
X21065000Y69130000D01*
X17985001Y66450001D02*
X20665000Y69130000D01*
X15895001Y66450001D02*
X15905000Y66460000D01*
X15769700Y66450001D02*
X17985001Y66450001D01*
%TO.N,/A4947 H-Bridge/SA*%
X18990000Y69130000D02*
X16360300Y69130000D01*
D35*
X33025000Y77640000D02*
X29205000Y73820000D01*
D34*
X16360300Y69130000D02*
X14975000Y67744700D01*
D35*
X33025000Y78780000D02*
X33025000Y77640000D01*
X29205000Y73820000D02*
X29205000Y72480000D01*
D34*
%TO.N,Net-(U2-CP2)*%
X13475000Y67744700D02*
X13475000Y70380000D01*
X11617500Y72237500D02*
X10165000Y72237500D01*
X13475000Y70380000D02*
X11617500Y72237500D01*
%TO.N,Net-(U2-CP1)*%
X10165000Y70162500D02*
X12162500Y70162500D01*
X12974999Y69350001D02*
X12974999Y67744700D01*
X12162500Y70162500D02*
X12974999Y69350001D01*
%TO.N,/A4947 H-Bridge/RDEAD*%
X11125000Y59100000D02*
X13275000Y59100000D01*
X13275000Y59100000D02*
X13285000Y59090000D01*
X12974999Y59400001D02*
X12974999Y63655300D01*
X13285000Y59090000D02*
X12974999Y59400001D01*
%TO.N,Net-(Q2-G)*%
X30825000Y78530000D02*
X30835000Y78540000D01*
%TO.N,/A4947 H-Bridge/GHA*%
X17095000Y67760000D02*
X16579700Y67760000D01*
X16579700Y67760000D02*
X15769700Y66950000D01*
%TO.N,/A4947 H-Bridge/GLA*%
X25965000Y80530000D02*
X25865000Y80530000D01*
X25865000Y80530000D02*
X14475001Y69140001D01*
X14475001Y69140001D02*
X14475001Y67744700D01*
%TO.N,/A4947 H-Bridge/GHB*%
X17100003Y64393997D02*
X16544001Y64949999D01*
X16544001Y64949999D02*
X15769700Y64949999D01*
%TO.N,/A4947 H-Bridge/GLB*%
X14975000Y63655300D02*
X15379700Y63655300D01*
X25955000Y53080000D02*
X25955000Y52820000D01*
X15379700Y63655300D02*
X25955000Y53080000D01*
%TO.N,/A4947 H-Bridge/VREG*%
X15769700Y65950000D02*
X18637500Y65950000D01*
X18637500Y65950000D02*
X18937500Y65650000D01*
%TD*%
%TA.AperFunction,Conductor*%
%TO.N,GND*%
G36*
X24573059Y67558939D02*
G01*
X24678223Y67545094D01*
X24709491Y67536716D01*
X24799918Y67499260D01*
X24827952Y67483075D01*
X24905602Y67423491D01*
X24928491Y67400602D01*
X24988074Y67322952D01*
X25004259Y67294919D01*
X25041715Y67204492D01*
X25050093Y67173225D01*
X25063939Y67068061D01*
X25065000Y67051875D01*
X25065000Y64198126D01*
X25063939Y64181941D01*
X25063939Y64181940D01*
X25050093Y64076776D01*
X25041715Y64045509D01*
X25004259Y63955082D01*
X24988074Y63927049D01*
X24928491Y63849399D01*
X24905601Y63826509D01*
X24827951Y63766926D01*
X24799918Y63750741D01*
X24709491Y63713285D01*
X24678224Y63704907D01*
X24584398Y63692554D01*
X24573058Y63691061D01*
X24556874Y63690000D01*
X20343126Y63690000D01*
X20326941Y63691061D01*
X20313917Y63692776D01*
X20221775Y63704907D01*
X20190508Y63713285D01*
X20100081Y63750741D01*
X20072048Y63766926D01*
X19994398Y63826509D01*
X19971508Y63849399D01*
X19911925Y63927049D01*
X19895740Y63955082D01*
X19858284Y64045509D01*
X19849906Y64076777D01*
X19836061Y64181941D01*
X19835000Y64198126D01*
X19835000Y64622270D01*
X19854685Y64689309D01*
X19863609Y64700385D01*
X19863234Y64700681D01*
X19867705Y64706338D01*
X19867712Y64706344D01*
X19959814Y64855666D01*
X20014999Y65022203D01*
X20025500Y65124991D01*
X20025499Y66175008D01*
X20014999Y66277797D01*
X19959814Y66444334D01*
X19867712Y66593656D01*
X19867709Y66593659D01*
X19863234Y66599319D01*
X19865345Y66600989D01*
X19837834Y66651372D01*
X19835000Y66677730D01*
X19835000Y67051875D01*
X19836061Y67068060D01*
X19849906Y67173224D01*
X19849906Y67173225D01*
X19858284Y67204492D01*
X19895740Y67294919D01*
X19911923Y67322950D01*
X19971513Y67400608D01*
X19994392Y67423487D01*
X20072050Y67483077D01*
X20100079Y67499260D01*
X20190509Y67536717D01*
X20221775Y67545094D01*
X20326941Y67558939D01*
X20343126Y67560000D01*
X24556874Y67560000D01*
X24573059Y67558939D01*
G37*
%TD.AperFunction*%
%TD*%
%TA.AperFunction,Conductor*%
%TO.N,/A4947 H-Bridge/SB*%
G36*
X30728039Y65240315D02*
G01*
X30773794Y65187511D01*
X30785000Y65136000D01*
X30785000Y61864500D01*
X30765315Y61797461D01*
X30712511Y61751706D01*
X30661000Y61740500D01*
X30550406Y61740500D01*
X30482343Y61734315D01*
X30482341Y61734315D01*
X30482338Y61734314D01*
X30325730Y61685513D01*
X30325728Y61685512D01*
X30263483Y61647883D01*
X30199334Y61630000D01*
X27869000Y61630000D01*
X27801961Y61649685D01*
X27756206Y61702489D01*
X27745000Y61754000D01*
X27745000Y65136000D01*
X27764685Y65203039D01*
X27817489Y65248794D01*
X27869000Y65260000D01*
X30661000Y65260000D01*
X30728039Y65240315D01*
G37*
%TD.AperFunction*%
%TD*%
%TA.AperFunction,Conductor*%
%TO.N,/A4947 H-Bridge/SA*%
G36*
X30748039Y73490315D02*
G01*
X30793794Y73437511D01*
X30805000Y73386000D01*
X30805000Y70124706D01*
X30799395Y70105621D01*
X30798719Y70085742D01*
X30789753Y70072785D01*
X30785315Y70057667D01*
X30770283Y70044643D01*
X30758966Y70028284D01*
X30734783Y70013882D01*
X30732511Y70011912D01*
X30728643Y70010224D01*
X30728148Y70010018D01*
X30680505Y70000500D01*
X30550406Y70000500D01*
X30482343Y69994315D01*
X30482341Y69994315D01*
X30482338Y69994314D01*
X30325730Y69945513D01*
X30325728Y69945512D01*
X30246941Y69897883D01*
X30182792Y69880000D01*
X27879000Y69880000D01*
X27811961Y69899685D01*
X27766206Y69952489D01*
X27755000Y70004000D01*
X27755000Y73386000D01*
X27774685Y73453039D01*
X27827489Y73498794D01*
X27879000Y73510000D01*
X30681000Y73510000D01*
X30748039Y73490315D01*
G37*
%TD.AperFunction*%
%TD*%
%TA.AperFunction,Conductor*%
%TO.N,/A4947 H-Bridge/SB*%
G36*
X44629071Y67313716D02*
G01*
X44675025Y67261086D01*
X44686426Y67209218D01*
X44692301Y56847567D01*
X44693057Y55513455D01*
X44696102Y50144070D01*
X44676455Y50077020D01*
X44623677Y50031235D01*
X44572102Y50020000D01*
X32610692Y50020000D01*
X32543653Y50039685D01*
X32497898Y50092489D01*
X32486692Y50144185D01*
X32494519Y55395874D01*
X32514304Y55462884D01*
X32567176Y55508560D01*
X32618633Y55519689D01*
X39245000Y55513455D01*
X39245000Y55513456D01*
X39245000Y67189513D01*
X39264685Y67256552D01*
X39317489Y67302307D01*
X39368526Y67313512D01*
X44561958Y67333147D01*
X44629071Y67313716D01*
G37*
%TD.AperFunction*%
%TD*%
%TA.AperFunction,Conductor*%
%TO.N,/VBB1*%
G36*
X54116846Y94459815D02*
G01*
X54162601Y94407011D01*
X54173806Y94355069D01*
X54158550Y89961207D01*
X54154500Y89935916D01*
X54154500Y89680039D01*
X54189799Y89231520D01*
X54189799Y89231519D01*
X54260180Y88787154D01*
X54260181Y88787148D01*
X54365210Y88349668D01*
X54504241Y87921779D01*
X54504245Y87921767D01*
X54564499Y87776301D01*
X54676414Y87506114D01*
X54842832Y87179500D01*
X54880676Y87105227D01*
X54880679Y87105222D01*
X55115740Y86721638D01*
X55115745Y86721631D01*
X55115747Y86721628D01*
X55183488Y86628391D01*
X55380192Y86357650D01*
X55380203Y86357636D01*
X55502418Y86214541D01*
X55672392Y86015527D01*
X55990527Y85697392D01*
X56332642Y85405198D01*
X56696628Y85140747D01*
X56696632Y85140745D01*
X56696637Y85140741D01*
X57080221Y84905680D01*
X57080226Y84905677D01*
X57080231Y84905675D01*
X57080240Y84905669D01*
X57481114Y84701414D01*
X57896778Y84529241D01*
X58324668Y84390210D01*
X58762148Y84285181D01*
X59206520Y84214799D01*
X59655044Y84179500D01*
X59864982Y84179500D01*
X64580500Y84179500D01*
X64647539Y84159815D01*
X64693294Y84107011D01*
X64704500Y84055500D01*
X64704500Y41809573D01*
X64684815Y41742534D01*
X64632011Y41696779D01*
X64580606Y41685573D01*
X49049598Y41672284D01*
X48982542Y41691911D01*
X48936742Y41744676D01*
X48925492Y41796310D01*
X48925495Y41809573D01*
X48927600Y51698081D01*
X48947299Y51765115D01*
X49000113Y51810858D01*
X49051870Y51822053D01*
X59035515Y51800175D01*
X59114999Y51800000D01*
X59114998Y51800001D01*
X59115000Y51800000D01*
X59090000Y61970000D01*
X46769999Y68180001D01*
X46770000Y68180001D01*
X38186621Y68196623D01*
X38170000Y68196655D01*
X38169999Y68196655D01*
X38174773Y60247957D01*
X38155129Y60180906D01*
X38102352Y60135120D01*
X38051651Y60123886D01*
X32655992Y60085686D01*
X32588815Y60104896D01*
X32542687Y60157374D01*
X32531114Y60209594D01*
X32521633Y73914312D01*
X32541271Y73981362D01*
X32594044Y74027154D01*
X32645535Y74038395D01*
X47910000Y74050000D01*
X47916225Y94355539D01*
X47935930Y94422571D01*
X47988748Y94468310D01*
X48040225Y94479500D01*
X54049807Y94479500D01*
X54116846Y94459815D01*
G37*
%TD.AperFunction*%
%TD*%
%TA.AperFunction,Conductor*%
%TO.N,/A4947 H-Bridge/SA*%
G36*
X46131098Y83209670D02*
G01*
X46198120Y83189933D01*
X46243834Y83137094D01*
X46255000Y83085670D01*
X46255000Y75654000D01*
X46235315Y75586961D01*
X46182511Y75541206D01*
X46131000Y75530000D01*
X32489021Y75530000D01*
X32421982Y75549685D01*
X32376227Y75602489D01*
X32365021Y75654185D01*
X32376111Y83096446D01*
X32395896Y83163456D01*
X32448768Y83209132D01*
X32500205Y83220261D01*
X46131098Y83209670D01*
G37*
%TD.AperFunction*%
%TD*%
%TA.AperFunction,Conductor*%
%TO.N,GND*%
G36*
X8348834Y63483300D02*
G01*
X8404767Y63441428D01*
X8429184Y63375964D01*
X8429500Y63367118D01*
X8429500Y61278348D01*
X8409815Y61211309D01*
X8370598Y61172811D01*
X8340913Y61154500D01*
X8248842Y61097711D01*
X8124788Y60973657D01*
X8124783Y60973651D01*
X8122741Y60970339D01*
X8120747Y60968547D01*
X8120307Y60967989D01*
X8120211Y60968065D01*
X8070791Y60923617D01*
X8001828Y60912398D01*
X7937747Y60940245D01*
X7911668Y60970344D01*
X7909819Y60973341D01*
X7909816Y60973345D01*
X7785845Y61097316D01*
X7636624Y61189357D01*
X7636619Y61189359D01*
X7470197Y61244506D01*
X7470190Y61244507D01*
X7367486Y61255000D01*
X7230000Y61255000D01*
X7230000Y58805001D01*
X7367472Y58805001D01*
X7367486Y58805002D01*
X7470197Y58815495D01*
X7636619Y58870642D01*
X7636624Y58870644D01*
X7785845Y58962685D01*
X7909818Y59086658D01*
X7911665Y59089652D01*
X7913469Y59091276D01*
X7914298Y59092323D01*
X7914476Y59092182D01*
X7963610Y59136379D01*
X8032573Y59147604D01*
X8096656Y59119764D01*
X8122743Y59089659D01*
X8124788Y59086344D01*
X8248844Y58962288D01*
X8370597Y58887191D01*
X8417321Y58835245D01*
X8429500Y58781653D01*
X8429500Y58487600D01*
X8409815Y58420561D01*
X8370598Y58382063D01*
X8351112Y58370043D01*
X8233842Y58297711D01*
X8109788Y58173657D01*
X8109783Y58173651D01*
X8107741Y58170339D01*
X8105747Y58168547D01*
X8105307Y58167989D01*
X8105211Y58168065D01*
X8055791Y58123617D01*
X7986828Y58112398D01*
X7922747Y58140245D01*
X7896668Y58170344D01*
X7894819Y58173341D01*
X7894816Y58173345D01*
X7770845Y58297316D01*
X7621624Y58389357D01*
X7621619Y58389359D01*
X7455197Y58444506D01*
X7455190Y58444507D01*
X7352486Y58455000D01*
X7215000Y58455000D01*
X7215000Y56005001D01*
X7352472Y56005001D01*
X7352486Y56005002D01*
X7455197Y56015495D01*
X7621619Y56070642D01*
X7621624Y56070644D01*
X7770845Y56162685D01*
X7894818Y56286658D01*
X7896665Y56289652D01*
X7898469Y56291276D01*
X7899298Y56292323D01*
X7899476Y56292182D01*
X7948610Y56336379D01*
X8017573Y56347604D01*
X8081656Y56319764D01*
X8107743Y56289659D01*
X8109788Y56286344D01*
X8233844Y56162288D01*
X8383166Y56070186D01*
X8549703Y56015001D01*
X8652491Y56004500D01*
X9427508Y56004501D01*
X9427516Y56004502D01*
X9427519Y56004502D01*
X9483802Y56010252D01*
X9530297Y56015001D01*
X9696834Y56070186D01*
X9846156Y56162288D01*
X9970212Y56286344D01*
X9995691Y56327654D01*
X10047636Y56374377D01*
X10116599Y56385600D01*
X10175184Y56361060D01*
X10175197Y56361080D01*
X10175328Y56361000D01*
X10178143Y56359820D01*
X10181340Y56357292D01*
X10181344Y56357288D01*
X10330666Y56265186D01*
X10414505Y56237405D01*
X10471948Y56197634D01*
X10498772Y56133118D01*
X10499500Y56119700D01*
X10499500Y50178389D01*
X10523535Y50057556D01*
X10523540Y50057539D01*
X10570685Y49943719D01*
X10570690Y49943710D01*
X10582219Y49926457D01*
X10592857Y49910537D01*
X10639142Y49841267D01*
X10726267Y49754142D01*
X10726269Y49754141D01*
X10736749Y49743661D01*
X18513060Y41967349D01*
X18546545Y41906026D01*
X18541561Y41836334D01*
X18499689Y41780401D01*
X18434225Y41755984D01*
X18425379Y41755668D01*
X15750904Y41755668D01*
X15683865Y41775353D01*
X15663223Y41791987D01*
X6346819Y51108391D01*
X6313334Y51169714D01*
X6310500Y51196072D01*
X6310500Y55898220D01*
X6330185Y55965259D01*
X6382989Y56011014D01*
X6452147Y56020958D01*
X6473516Y56015922D01*
X6474808Y56015494D01*
X6577519Y56005001D01*
X6714999Y56005001D01*
X6715000Y56005002D01*
X6715000Y58455000D01*
X6577527Y58455000D01*
X6577512Y58454999D01*
X6474799Y58444506D01*
X6473497Y58444074D01*
X6472646Y58444045D01*
X6468181Y58443089D01*
X6468010Y58443886D01*
X6445038Y58443097D01*
X6416853Y58439044D01*
X6410570Y58441914D01*
X6403669Y58441676D01*
X6379200Y58456240D01*
X6353297Y58468069D01*
X6349563Y58473880D01*
X6343629Y58477411D01*
X6330917Y58502892D01*
X6315523Y58526847D01*
X6314128Y58536550D01*
X6312440Y58539933D01*
X6310500Y58561782D01*
X6310500Y58703190D01*
X6330185Y58770229D01*
X6382989Y58815984D01*
X6452147Y58825928D01*
X6473506Y58820895D01*
X6489800Y58815496D01*
X6489809Y58815494D01*
X6592519Y58805001D01*
X6729999Y58805001D01*
X6730000Y58805002D01*
X6730000Y61255000D01*
X6592527Y61255000D01*
X6592512Y61254999D01*
X6489802Y61244506D01*
X6473504Y61239105D01*
X6445039Y61238126D01*
X6416853Y61234073D01*
X6410574Y61236941D01*
X6403676Y61236703D01*
X6379204Y61251267D01*
X6353297Y61263098D01*
X6349564Y61268906D01*
X6343634Y61272435D01*
X6330920Y61297918D01*
X6315523Y61321876D01*
X6314128Y61331572D01*
X6312441Y61334955D01*
X6310500Y61356811D01*
X6310500Y61496118D01*
X6330185Y61563157D01*
X6346819Y61583799D01*
X8217819Y63454799D01*
X8279142Y63488284D01*
X8348834Y63483300D01*
G37*
%TD.AperFunction*%
%TA.AperFunction,Conductor*%
G36*
X14679699Y59608085D02*
G01*
X14696130Y59594280D01*
X20482559Y53807851D01*
X20516044Y53746528D01*
X20518878Y53720477D01*
X20547892Y42001368D01*
X20528373Y41934280D01*
X20475683Y41888395D01*
X20406549Y41878280D01*
X20342922Y41907147D01*
X20336211Y41913380D01*
X11786819Y50462772D01*
X11753334Y50524095D01*
X11750500Y50550453D01*
X11750500Y56119700D01*
X11770185Y56186739D01*
X11822989Y56232494D01*
X11835482Y56237401D01*
X11919334Y56265186D01*
X12050921Y56346350D01*
X12118312Y56364790D01*
X12184976Y56343868D01*
X12221555Y56305909D01*
X12242682Y56271657D01*
X12366654Y56147685D01*
X12515875Y56055644D01*
X12515880Y56055642D01*
X12682302Y56000495D01*
X12682309Y56000494D01*
X12785019Y55990001D01*
X13034999Y55990001D01*
X13535000Y55990001D01*
X13784972Y55990001D01*
X13784986Y55990002D01*
X13887697Y56000495D01*
X14054119Y56055642D01*
X14054124Y56055644D01*
X14203345Y56147685D01*
X14327315Y56271655D01*
X14419356Y56420876D01*
X14419358Y56420881D01*
X14474505Y56587303D01*
X14474506Y56587310D01*
X14484999Y56690014D01*
X14485000Y56690027D01*
X14485000Y56840000D01*
X13535000Y56840000D01*
X13535000Y55990001D01*
X13034999Y55990001D01*
X13035000Y55990002D01*
X13035000Y56966000D01*
X13054685Y57033039D01*
X13107489Y57078794D01*
X13159000Y57090000D01*
X13285000Y57090000D01*
X13285000Y57216000D01*
X13304685Y57283039D01*
X13357489Y57328794D01*
X13409000Y57340000D01*
X14484999Y57340000D01*
X14484999Y57489972D01*
X14484998Y57489987D01*
X14474505Y57592698D01*
X14419358Y57759120D01*
X14419356Y57759125D01*
X14327315Y57908346D01*
X14233695Y58001966D01*
X14200210Y58063289D01*
X14205194Y58132981D01*
X14233691Y58177324D01*
X14327712Y58271344D01*
X14419814Y58420666D01*
X14474999Y58587203D01*
X14485500Y58689991D01*
X14485499Y59490008D01*
X14485092Y59493989D01*
X14497856Y59562680D01*
X14545732Y59613569D01*
X14613520Y59630495D01*
X14679699Y59608085D01*
G37*
%TD.AperFunction*%
%TA.AperFunction,Conductor*%
G36*
X15454540Y62695870D02*
G01*
X20472979Y57677430D01*
X20487612Y57650631D01*
X20504188Y57624979D01*
X20505128Y57618554D01*
X20506464Y57616107D01*
X20509298Y57590057D01*
X20509467Y57521983D01*
X20489949Y57454895D01*
X20437258Y57409009D01*
X20368125Y57398894D01*
X20304497Y57427761D01*
X20297793Y57433988D01*
X15229718Y62502062D01*
X15196234Y62563384D01*
X15201218Y62633076D01*
X15243090Y62689009D01*
X15274065Y62705923D01*
X15323527Y62724372D01*
X15393218Y62729355D01*
X15454540Y62695870D01*
G37*
%TD.AperFunction*%
%TA.AperFunction,Conductor*%
G36*
X11029894Y63823485D02*
G01*
X11033111Y63824184D01*
X11067598Y63816682D01*
X11102917Y63803509D01*
X11102916Y63803509D01*
X11109844Y63802765D01*
X11162527Y63797100D01*
X12198072Y63797101D01*
X12198099Y63797101D01*
X12206785Y63794551D01*
X12215746Y63795839D01*
X12239782Y63784862D01*
X12265138Y63777417D01*
X12271066Y63770575D01*
X12279302Y63766814D01*
X12293588Y63744583D01*
X12310893Y63724613D01*
X12313180Y63714098D01*
X12317076Y63708036D01*
X12322099Y63673101D01*
X12322099Y63626900D01*
X12302414Y63559861D01*
X12249610Y63514106D01*
X12198099Y63502900D01*
X11822600Y63502900D01*
X11822600Y63137556D01*
X11829001Y63078028D01*
X11829003Y63078021D01*
X11879245Y62943314D01*
X11879249Y62943307D01*
X11965409Y62828213D01*
X11965412Y62828210D01*
X12080506Y62742050D01*
X12080513Y62742046D01*
X12218226Y62690682D01*
X12274160Y62648811D01*
X12298577Y62583346D01*
X12283725Y62515073D01*
X12234320Y62465668D01*
X12174893Y62450500D01*
X11524998Y62450500D01*
X11524980Y62450499D01*
X11422203Y62440000D01*
X11422200Y62439999D01*
X11255668Y62384815D01*
X11255663Y62384813D01*
X11106342Y62292711D01*
X10982289Y62168658D01*
X10890187Y62019337D01*
X10890185Y62019332D01*
X10834999Y61852791D01*
X10834465Y61850297D01*
X10833713Y61848911D01*
X10832872Y61846371D01*
X10832418Y61846522D01*
X10801173Y61788868D01*
X10782109Y61773172D01*
X10726265Y61735858D01*
X10726263Y61735856D01*
X10062319Y61071911D01*
X10000996Y61038426D01*
X9931304Y61043410D01*
X9903665Y61057912D01*
X9894694Y61064174D01*
X9861156Y61097712D01*
X9736412Y61174655D01*
X9733527Y61176668D01*
X9713783Y61201293D01*
X9692679Y61224757D01*
X9691772Y61228747D01*
X9689821Y61231180D01*
X9688620Y61242618D01*
X9680500Y61278348D01*
X9680500Y63449548D01*
X9700185Y63516587D01*
X9716819Y63537229D01*
X9967772Y63788181D01*
X10029095Y63821666D01*
X10055453Y63824500D01*
X11024265Y63824500D01*
X11029894Y63823485D01*
G37*
%TD.AperFunction*%
%TA.AperFunction,Conductor*%
G36*
X20457229Y82130983D02*
G01*
X20502984Y82078179D01*
X20514190Y82026806D01*
X20516700Y79774574D01*
X20497090Y79707513D01*
X20480518Y79686892D01*
X15673104Y74864459D01*
X15611833Y74830878D01*
X15597889Y74828645D01*
X15562210Y74825000D01*
X15562202Y74824999D01*
X15395668Y74769815D01*
X15395663Y74769813D01*
X15246342Y74677711D01*
X15122288Y74553657D01*
X15122283Y74553651D01*
X15120241Y74550339D01*
X15118247Y74548547D01*
X15117807Y74547989D01*
X15117711Y74548065D01*
X15068291Y74503617D01*
X14999328Y74492398D01*
X14935247Y74520245D01*
X14909168Y74550344D01*
X14907319Y74553341D01*
X14907316Y74553345D01*
X14783345Y74677316D01*
X14634124Y74769357D01*
X14634119Y74769359D01*
X14467697Y74824506D01*
X14467690Y74824507D01*
X14364986Y74835000D01*
X14227500Y74835000D01*
X14227500Y72385001D01*
X14364972Y72385001D01*
X14364986Y72385002D01*
X14467697Y72395495D01*
X14634119Y72450642D01*
X14634124Y72450644D01*
X14783344Y72542685D01*
X14819991Y72579331D01*
X14881313Y72612817D01*
X14951005Y72607833D01*
X15006939Y72565963D01*
X15031357Y72500499D01*
X15031670Y72492476D01*
X15037773Y71575345D01*
X15018535Y71508176D01*
X14966037Y71462071D01*
X14896946Y71451667D01*
X14877782Y71455859D01*
X14877662Y71455896D01*
X14703694Y71490500D01*
X14703691Y71490500D01*
X14526309Y71490500D01*
X14526306Y71490500D01*
X14352341Y71455897D01*
X14352332Y71455894D01*
X14188459Y71388017D01*
X14188446Y71388010D01*
X14040965Y71289465D01*
X14040961Y71289462D01*
X13915538Y71164039D01*
X13863301Y71085861D01*
X13809688Y71041057D01*
X13740363Y71032350D01*
X13677336Y71062505D01*
X13672518Y71067072D01*
X12113322Y72626268D01*
X12103359Y72636231D01*
X12103358Y72636233D01*
X12016233Y72723358D01*
X11965009Y72757585D01*
X11913786Y72791812D01*
X11913783Y72791814D01*
X11913780Y72791815D01*
X11840103Y72822332D01*
X11840101Y72822333D01*
X11833292Y72825153D01*
X11799952Y72838963D01*
X11739529Y72850982D01*
X11734806Y72851922D01*
X11734804Y72851922D01*
X11679110Y72863000D01*
X11679107Y72863000D01*
X11679106Y72863000D01*
X11413348Y72863000D01*
X11346309Y72882685D01*
X11307809Y72921903D01*
X11289476Y72951626D01*
X11232712Y73043656D01*
X11191354Y73085014D01*
X12890001Y73085014D01*
X12900494Y72982303D01*
X12955641Y72815881D01*
X12955643Y72815876D01*
X13047684Y72666655D01*
X13171654Y72542685D01*
X13320875Y72450644D01*
X13320880Y72450642D01*
X13487302Y72395495D01*
X13487309Y72395494D01*
X13590019Y72385001D01*
X13727499Y72385001D01*
X13727500Y72385002D01*
X13727500Y73360000D01*
X12890001Y73360000D01*
X12890001Y73085014D01*
X11191354Y73085014D01*
X11108656Y73167712D01*
X10959334Y73259814D01*
X10792797Y73314999D01*
X10792795Y73315000D01*
X10690010Y73325500D01*
X9639998Y73325500D01*
X9639980Y73325499D01*
X9537203Y73315000D01*
X9537200Y73314999D01*
X9370668Y73259815D01*
X9370663Y73259813D01*
X9221342Y73167711D01*
X9097289Y73043658D01*
X9005187Y72894337D01*
X9005185Y72894332D01*
X8986838Y72838963D01*
X8950001Y72727797D01*
X8950001Y72727796D01*
X8950000Y72727796D01*
X8939500Y72625017D01*
X8939500Y71849999D01*
X8939501Y71849981D01*
X8950000Y71747204D01*
X8950001Y71747201D01*
X8994803Y71612000D01*
X9005186Y71580666D01*
X9082144Y71455896D01*
X9097289Y71431343D01*
X9221346Y71307286D01*
X9224182Y71305537D01*
X9225717Y71303830D01*
X9227011Y71302807D01*
X9226836Y71302586D01*
X9270905Y71253589D01*
X9282126Y71184626D01*
X9254282Y71120544D01*
X9224182Y71094463D01*
X9221346Y71092715D01*
X9097289Y70968658D01*
X9005187Y70819337D01*
X9005185Y70819332D01*
X8994803Y70788000D01*
X8950001Y70652797D01*
X8950001Y70652796D01*
X8950000Y70652796D01*
X8939500Y70550017D01*
X8939500Y69774999D01*
X8939501Y69774981D01*
X8950000Y69672204D01*
X8950001Y69672201D01*
X9005185Y69505669D01*
X9005187Y69505664D01*
X9040069Y69449112D01*
X9097288Y69356344D01*
X9221344Y69232288D01*
X9370666Y69140186D01*
X9537203Y69085001D01*
X9639991Y69074500D01*
X10690008Y69074501D01*
X10690016Y69074502D01*
X10690019Y69074502D01*
X10746302Y69080252D01*
X10792797Y69085001D01*
X10959334Y69140186D01*
X11108656Y69232288D01*
X11232712Y69356344D01*
X11307809Y69478098D01*
X11359757Y69524821D01*
X11413348Y69537000D01*
X11852048Y69537000D01*
X11919087Y69517315D01*
X11939729Y69500681D01*
X12313180Y69127230D01*
X12327883Y69100303D01*
X12344476Y69074484D01*
X12345367Y69068284D01*
X12346665Y69065907D01*
X12349499Y69039549D01*
X12349499Y68834018D01*
X12329814Y68766979D01*
X12277010Y68721224D01*
X12238758Y68710729D01*
X12215226Y68708199D01*
X12215220Y68708197D01*
X12080513Y68657955D01*
X12080506Y68657951D01*
X11965412Y68571791D01*
X11965409Y68571788D01*
X11879249Y68456694D01*
X11879245Y68456687D01*
X11829003Y68321980D01*
X11829001Y68321973D01*
X11822600Y68262445D01*
X11822600Y67897100D01*
X12198099Y67897100D01*
X12206784Y67894550D01*
X12215744Y67895838D01*
X12239783Y67884861D01*
X12265138Y67877415D01*
X12271065Y67870575D01*
X12279300Y67866814D01*
X12293589Y67844580D01*
X12310893Y67824611D01*
X12313179Y67814100D01*
X12317076Y67808037D01*
X12322099Y67773102D01*
X12322100Y67716302D01*
X12302417Y67649262D01*
X12249613Y67603507D01*
X12198100Y67592300D01*
X11832700Y67592300D01*
X11832700Y67226901D01*
X11830149Y67218216D01*
X11831438Y67209254D01*
X11820459Y67185214D01*
X11813015Y67159862D01*
X11806174Y67153935D01*
X11802413Y67145698D01*
X11780178Y67131409D01*
X11760211Y67114107D01*
X11749696Y67111820D01*
X11743635Y67107924D01*
X11708700Y67102901D01*
X11651900Y67102901D01*
X11584861Y67122586D01*
X11539106Y67175390D01*
X11527900Y67226901D01*
X11527900Y67602400D01*
X11162555Y67602400D01*
X11103027Y67595999D01*
X11103020Y67595997D01*
X10968313Y67545755D01*
X10968306Y67545751D01*
X10853212Y67459591D01*
X10853209Y67459588D01*
X10767049Y67344494D01*
X10767045Y67344487D01*
X10716803Y67209780D01*
X10716801Y67209774D01*
X10714272Y67186245D01*
X10687534Y67121694D01*
X10630142Y67081846D01*
X10590983Y67075501D01*
X8476607Y67075501D01*
X8353394Y67075501D01*
X8282819Y67061463D01*
X8282818Y67061464D01*
X8232554Y67051466D01*
X8232546Y67051463D01*
X8118717Y67004314D01*
X8052319Y66959947D01*
X8052318Y66959946D01*
X8016264Y66935857D01*
X8016263Y66935856D01*
X4237801Y63157393D01*
X4176478Y63123908D01*
X4106786Y63128892D01*
X4050853Y63170764D01*
X4026436Y63236228D01*
X4026120Y63245074D01*
X4026120Y74134987D01*
X12890000Y74134987D01*
X12890000Y73860000D01*
X13727500Y73860000D01*
X13727500Y74835000D01*
X13590027Y74835000D01*
X13590012Y74834999D01*
X13487302Y74824506D01*
X13320880Y74769359D01*
X13320875Y74769357D01*
X13171654Y74677316D01*
X13047684Y74553346D01*
X12955643Y74404125D01*
X12955641Y74404120D01*
X12900494Y74237698D01*
X12900493Y74237691D01*
X12890000Y74134987D01*
X4026120Y74134987D01*
X4026120Y82026668D01*
X4045805Y82093707D01*
X4098609Y82139462D01*
X4150120Y82150668D01*
X20390190Y82150668D01*
X20457229Y82130983D01*
G37*
%TD.AperFunction*%
%TD*%
%TA.AperFunction,Conductor*%
%TO.N,GND*%
G36*
X57063059Y61088939D02*
G01*
X57168223Y61075094D01*
X57199491Y61066716D01*
X57289918Y61029260D01*
X57317952Y61013075D01*
X57395602Y60953491D01*
X57418491Y60930602D01*
X57478074Y60852952D01*
X57494259Y60824919D01*
X57531715Y60734492D01*
X57540093Y60703225D01*
X57553939Y60598061D01*
X57555000Y60581875D01*
X57555000Y53698126D01*
X57553939Y53681941D01*
X57553939Y53681940D01*
X57540093Y53576776D01*
X57531715Y53545509D01*
X57494259Y53455082D01*
X57478074Y53427049D01*
X57418491Y53349399D01*
X57395601Y53326509D01*
X57317951Y53266926D01*
X57289918Y53250741D01*
X57199491Y53213285D01*
X57168224Y53204907D01*
X57074398Y53192554D01*
X57063058Y53191061D01*
X57046874Y53190000D01*
X46753126Y53190000D01*
X46736941Y53191061D01*
X46723917Y53192776D01*
X46631775Y53204907D01*
X46600508Y53213285D01*
X46510081Y53250741D01*
X46482048Y53266926D01*
X46404398Y53326509D01*
X46381508Y53349399D01*
X46321925Y53427049D01*
X46305740Y53455082D01*
X46268284Y53545509D01*
X46259906Y53576777D01*
X46246061Y53681941D01*
X46245000Y53698126D01*
X46245000Y60581875D01*
X46246061Y60598060D01*
X46259906Y60703224D01*
X46259906Y60703225D01*
X46268284Y60734492D01*
X46305740Y60824919D01*
X46321923Y60852950D01*
X46381513Y60930608D01*
X46404392Y60953487D01*
X46482050Y61013077D01*
X46510079Y61029260D01*
X46600509Y61066717D01*
X46631775Y61075094D01*
X46736941Y61088939D01*
X46753126Y61090000D01*
X57046874Y61090000D01*
X57063059Y61088939D01*
G37*
%TD.AperFunction*%
%TD*%
%TA.AperFunction,Conductor*%
%TO.N,GND*%
G36*
X31728039Y55500315D02*
G01*
X31773794Y55447511D01*
X31785000Y55396000D01*
X31785000Y51750180D01*
X31765315Y51683141D01*
X31712511Y51637386D01*
X31643353Y51627442D01*
X31624110Y51631795D01*
X31487664Y51674313D01*
X31487662Y51674314D01*
X31487657Y51674315D01*
X31419594Y51680500D01*
X31419591Y51680500D01*
X31289495Y51680500D01*
X31242046Y51689938D01*
X31227666Y51695894D01*
X31227662Y51695895D01*
X31227658Y51695897D01*
X31053694Y51730500D01*
X31053691Y51730500D01*
X30876309Y51730500D01*
X30876306Y51730500D01*
X30702341Y51695897D01*
X30702337Y51695895D01*
X30702335Y51695895D01*
X30702334Y51695894D01*
X30687953Y51689938D01*
X30640505Y51680500D01*
X30510406Y51680500D01*
X30442343Y51674315D01*
X30442339Y51674314D01*
X30442335Y51674313D01*
X30285736Y51625515D01*
X30285727Y51625512D01*
X30145351Y51540652D01*
X30145347Y51540649D01*
X30029351Y51424653D01*
X30029348Y51424649D01*
X29944488Y51284273D01*
X29944485Y51284264D01*
X29895687Y51127665D01*
X29895685Y51127657D01*
X29889500Y51059594D01*
X29889500Y50600406D01*
X29895685Y50532343D01*
X29895686Y50532338D01*
X29895687Y50532336D01*
X29944485Y50375737D01*
X29944488Y50375728D01*
X30029348Y50235352D01*
X30029351Y50235348D01*
X30145347Y50119352D01*
X30145351Y50119349D01*
X30285727Y50034489D01*
X30285736Y50034486D01*
X30305889Y50028206D01*
X30442343Y49985685D01*
X30510406Y49979500D01*
X30640505Y49979500D01*
X30687953Y49970063D01*
X30702334Y49964106D01*
X30702338Y49964106D01*
X30702341Y49964104D01*
X30876304Y49929501D01*
X30876307Y49929500D01*
X30876309Y49929500D01*
X31053693Y49929500D01*
X31053694Y49929501D01*
X31125149Y49943714D01*
X31227658Y49964104D01*
X31227659Y49964105D01*
X31227666Y49964106D01*
X31242046Y49970063D01*
X31289495Y49979500D01*
X31419591Y49979500D01*
X31419594Y49979500D01*
X31487657Y49985685D01*
X31624110Y50028207D01*
X31693969Y50029358D01*
X31753362Y49992557D01*
X31783430Y49929489D01*
X31785000Y49909821D01*
X31785000Y48540000D01*
X25554500Y48540000D01*
X25554500Y49595501D01*
X25574185Y49662540D01*
X25626989Y49708295D01*
X25678500Y49719501D01*
X26455002Y49719501D01*
X26455008Y49719501D01*
X26557797Y49730001D01*
X26724334Y49785186D01*
X26873656Y49877288D01*
X26997712Y50001344D01*
X27089814Y50150666D01*
X27144999Y50317203D01*
X27155500Y50419991D01*
X27155499Y51220008D01*
X27144999Y51322797D01*
X27089814Y51489334D01*
X26997712Y51638656D01*
X26904049Y51732319D01*
X26870564Y51793642D01*
X26875548Y51863334D01*
X26904049Y51907681D01*
X26997712Y52001344D01*
X27089814Y52150666D01*
X27144999Y52317203D01*
X27155500Y52419991D01*
X27155499Y53220008D01*
X27144999Y53322797D01*
X27089814Y53489334D01*
X26997712Y53638656D01*
X26873656Y53762712D01*
X26724334Y53854814D01*
X26557797Y53909999D01*
X26557795Y53910000D01*
X26455016Y53920500D01*
X26455009Y53920500D01*
X26050453Y53920500D01*
X25983414Y53940185D01*
X25962772Y53956819D01*
X24611272Y55308319D01*
X24577787Y55369642D01*
X24582771Y55439334D01*
X24624643Y55495267D01*
X24690107Y55519684D01*
X24698953Y55520000D01*
X31661000Y55520000D01*
X31728039Y55500315D01*
G37*
%TD.AperFunction*%
%TD*%
%TA.AperFunction,Conductor*%
%TO.N,GND*%
G36*
X46218039Y92190315D02*
G01*
X46263794Y92137511D01*
X46275000Y92086000D01*
X46275000Y86424000D01*
X46255315Y86356961D01*
X46202511Y86311206D01*
X46151000Y86300000D01*
X24001597Y86300000D01*
X23995632Y86358860D01*
X23996083Y86361281D01*
X23995000Y86371362D01*
X23995000Y92086000D01*
X24014685Y92153039D01*
X24067489Y92198794D01*
X24119000Y92210000D01*
X46151000Y92210000D01*
X46218039Y92190315D01*
G37*
%TD.AperFunction*%
%TD*%
%TA.AperFunction,Conductor*%
%TO.N,GND*%
G36*
X31665000Y86300000D02*
G01*
X31665000Y79457064D01*
X31645315Y79390025D01*
X31592511Y79344270D01*
X31523353Y79334326D01*
X31504110Y79338679D01*
X31357664Y79384313D01*
X31357662Y79384314D01*
X31357657Y79384315D01*
X31289594Y79390500D01*
X31289591Y79390500D01*
X31159495Y79390500D01*
X31112046Y79399938D01*
X31097666Y79405894D01*
X31097662Y79405895D01*
X31097658Y79405897D01*
X30923694Y79440500D01*
X30923691Y79440500D01*
X30746309Y79440500D01*
X30746306Y79440500D01*
X30572341Y79405897D01*
X30572337Y79405895D01*
X30572335Y79405895D01*
X30572334Y79405894D01*
X30557953Y79399938D01*
X30510505Y79390500D01*
X30380406Y79390500D01*
X30312343Y79384315D01*
X30312339Y79384314D01*
X30312335Y79384313D01*
X30155736Y79335515D01*
X30155727Y79335512D01*
X30015351Y79250652D01*
X30015347Y79250649D01*
X29899351Y79134653D01*
X29899348Y79134649D01*
X29814488Y78994273D01*
X29814485Y78994264D01*
X29765687Y78837665D01*
X29765685Y78837657D01*
X29759500Y78769594D01*
X29759500Y78310406D01*
X29765685Y78242343D01*
X29765686Y78242338D01*
X29765687Y78242336D01*
X29814485Y78085737D01*
X29814488Y78085728D01*
X29899348Y77945352D01*
X29899351Y77945348D01*
X29953018Y77891681D01*
X29986503Y77830358D01*
X29981519Y77760666D01*
X29939647Y77704733D01*
X29874183Y77680316D01*
X29865337Y77680000D01*
X27210209Y77680000D01*
X27143170Y77699685D01*
X27097415Y77752489D01*
X27087471Y77821647D01*
X27097825Y77856401D01*
X27099809Y77860660D01*
X27099814Y77860666D01*
X27154999Y78027203D01*
X27165500Y78129991D01*
X27165499Y78930008D01*
X27154999Y79032797D01*
X27099814Y79199334D01*
X27007712Y79348656D01*
X26914049Y79442319D01*
X26880564Y79503642D01*
X26885548Y79573334D01*
X26914049Y79617681D01*
X27007712Y79711344D01*
X27099814Y79860666D01*
X27154999Y80027203D01*
X27165500Y80129991D01*
X27165499Y80930008D01*
X27154999Y81032797D01*
X27099814Y81199334D01*
X27007712Y81348656D01*
X26883656Y81472712D01*
X26734334Y81564814D01*
X26567797Y81619999D01*
X26567795Y81620000D01*
X26465010Y81630500D01*
X25464998Y81630500D01*
X25464980Y81630499D01*
X25362203Y81620000D01*
X25362200Y81619999D01*
X25195668Y81564815D01*
X25195663Y81564813D01*
X25046342Y81472711D01*
X24922289Y81348658D01*
X24830187Y81199337D01*
X24830186Y81199334D01*
X24775001Y81032797D01*
X24775001Y81032796D01*
X24775000Y81032796D01*
X24764500Y80930017D01*
X24764500Y80365453D01*
X24744815Y80298414D01*
X24728181Y80277772D01*
X24226681Y79776272D01*
X24165358Y79742787D01*
X24095666Y79747771D01*
X24039733Y79789643D01*
X24015316Y79855107D01*
X24015000Y79863953D01*
X24015000Y86313123D01*
X24015000Y86320000D01*
X31665000Y86320000D01*
X31665000Y86300000D01*
G37*
%TD.AperFunction*%
%TD*%
%TA.AperFunction,Conductor*%
%TO.N,GND*%
G36*
X47198039Y48540315D02*
G01*
X47243794Y48487511D01*
X47255000Y48436000D01*
X47255000Y41834000D01*
X47235315Y41766961D01*
X47182511Y41721206D01*
X47131000Y41710000D01*
X25678500Y41710000D01*
X25611461Y41729685D01*
X25565706Y41782489D01*
X25554500Y41834000D01*
X25554500Y48560000D01*
X31785000Y48560000D01*
X47131000Y48560000D01*
X47198039Y48540315D01*
G37*
%TD.AperFunction*%
%TD*%
M02*
